solid EggTurner
facet normal 4.718447854656918e-16 -1.3558546808486156e-31 -1.0
  outer loop
    vertex 1.6919798895287383e-14 6.00000000000002 0.0
    vertex 2.280238966157565 3.5000000000000178 9.535818313440812e-15
    vertex 1.4255263636187007e-14 1.973976537783528e-14 -4.437342591868193e-31
  endloop
endfacet
facet normal 4.718447854656918e-16 -1.3558546808486156e-31 -1.0
  outer loop
    vertex 2.280238966157565 3.5000000000000178 9.535818313440812e-15
    vertex 1.6919798895287383e-14 6.00000000000002 0.0
    vertex 2.4391575887554606 3.707106781186562 9.610803236827019e-15
  endloop
endfacet
facet normal 4.718447854656918e-16 -1.3558546808486156e-31 -1.0
  outer loop
    vertex 2.4391575887554606 3.707106781186562 9.610803236827019e-15
    vertex 1.6919798895287383e-14 6.00000000000002 0.0
    vertex 2.646264369942005 3.8660254037844575 9.708525491564474e-15
  endloop
endfacet
facet normal 4.718447854656918e-16 -1.3558546808486156e-31 -1.0
  outer loop
    vertex 2.646264369942005 3.8660254037844575 9.708525491564474e-15
    vertex 1.6919798895287383e-14 6.00000000000002 0.0
    vertex 2.887445324839481 3.965925826289085 9.822325467486484e-15
  endloop
endfacet
facet normal 4.718447854656918e-16 -1.3558546808486156e-31 -1.0
  outer loop
    vertex 2.887445324839481 3.965925826289085 9.822325467486484e-15
    vertex 1.6919798895287383e-14 6.00000000000002 0.0
    vertex 3.146264369942004 4.000000000000017 9.94444788429732e-15
  endloop
endfacet
facet normal 4.718447854656918e-16 -1.3558546808486156e-31 -1.0
  outer loop
    vertex 3.146264369942004 4.000000000000017 9.94444788429732e-15
    vertex 1.6919798895287383e-14 6.00000000000002 0.0
    vertex 86.29252873988396 5.999999999999982 4.071667971056259e-14
  endloop
endfacet
facet normal 4.718447854656918e-16 -1.3558546808486156e-31 -1.0
  outer loop
    vertex 1.4255263636187007e-14 1.973976537783528e-14 -4.437342591868193e-31
    vertex 2.280238966157565 3.5000000000000178 9.535818313440812e-15
    vertex 2.1803385436529377 3.258819045102541 9.488680820016184e-15
  endloop
endfacet
facet normal 4.718447854656918e-16 -1.3558546808486156e-31 -1.0
  outer loop
    vertex 1.4255263636187007e-14 1.973976537783528e-14 -4.437342591868193e-31
    vertex 2.1803385436529377 3.258819045102541 9.488680820016184e-15
    vertex 2.1462643699420054 3.0000000000000187 9.472603098831629e-15
  endloop
endfacet
facet normal 4.718447854656918e-16 -1.3558546808486156e-31 -1.0
  outer loop
    vertex 3.146264369942004 4.000000000000017 9.94444788429732e-15
    vertex 86.29252873988396 5.999999999999982 4.071667971056259e-14
    vertex 3.405083415044527 3.965925826289085 1.0066570301108154e-14
  endloop
endfacet
facet normal 4.718447854656918e-16 -1.3558546808486156e-31 -1.0
  outer loop
    vertex 3.405083415044527 3.965925826289085 1.0066570301108154e-14
    vertex 86.29252873988396 5.999999999999982 4.071667971056259e-14
    vertex 3.6462643699420036 3.8660254037844575 1.0180370277030166e-14
  endloop
endfacet
facet normal 4.718447854656918e-16 -1.3558546808486156e-31 -1.0
  outer loop
    vertex 3.6462643699420036 3.8660254037844575 1.0180370277030166e-14
    vertex 86.29252873988396 5.999999999999982 4.071667971056259e-14
    vertex 3.853371151128548 3.707106781186562 1.027809253176762e-14
  endloop
endfacet
facet normal 4.718447854656918e-16 -1.3558546808486156e-31 -1.0
  outer loop
    vertex 3.853371151128548 3.707106781186562 1.027809253176762e-14
    vertex 86.29252873988396 5.999999999999982 4.071667971056259e-14
    vertex 4.012289773726443 3.5000000000000178 1.0353077455153827e-14
  endloop
endfacet
facet normal 4.718447854656918e-16 -1.3558546808486156e-31 -1.0
  outer loop
    vertex 4.012289773726443 3.5000000000000178 1.0353077455153827e-14
    vertex 86.29252873988396 5.999999999999982 4.071667971056259e-14
    vertex 4.1121901962310705 3.258819045102541 1.0400214948578455e-14
  endloop
endfacet
facet normal 4.718447854656918e-16 -1.3558546808486156e-31 -1.0
  outer loop
    vertex 4.1121901962310705 3.258819045102541 1.0400214948578455e-14
    vertex 86.29252873988396 5.999999999999982 4.071667971056259e-14
    vertex 4.146264369942002 3.000000000000018 1.041629266976301e-14
  endloop
endfacet
facet normal 4.718447854656918e-16 -1.3558546808486156e-31 -1.0
  outer loop
    vertex 4.146264369942002 3.000000000000018 1.041629266976301e-14
    vertex 86.29252873988396 5.999999999999982 4.071667971056259e-14
    vertex 38.49626436994198 4.000000000000001 1.8164261602865826e-14
  endloop
endfacet
facet normal 4.718447854656918e-16 -1.3558546808486156e-31 -1.0
  outer loop
    vertex 4.146264369942002 3.000000000000018 1.041629266976301e-14
    vertex 38.49626436994198 4.000000000000001 1.8164261602865826e-14
    vertex 38.23744532483946 3.9659258262890695 1.804213918605499e-14
  endloop
endfacet
facet normal 4.718447854656918e-16 -1.3558546808486156e-31 -1.0
  outer loop
    vertex 4.146264369942002 3.000000000000018 1.041629266976301e-14
    vertex 38.23744532483946 3.9659258262890695 1.804213918605499e-14
    vertex 37.99626436994198 3.866025403784442 1.7928339210132977e-14
  endloop
endfacet
facet normal 4.718447854656918e-16 -1.3558546808486156e-31 -1.0
  outer loop
    vertex 4.146264369942002 3.000000000000018 1.041629266976301e-14
    vertex 37.99626436994198 3.866025403784442 1.7928339210132977e-14
    vertex 37.78915758875544 3.7071067811865466 1.783061695539552e-14
  endloop
endfacet
facet normal 4.718447854656918e-16 -1.3558546808486156e-31 -1.0
  outer loop
    vertex 4.146264369942002 3.000000000000018 1.041629266976301e-14
    vertex 37.78915758875544 3.7071067811865466 1.783061695539552e-14
    vertex 37.63023896615755 3.500000000000002 1.7755632032009318e-14
  endloop
endfacet
facet normal 4.718447854656918e-16 -1.3558546808486156e-31 -1.0
  outer loop
    vertex 4.146264369942002 3.000000000000018 1.041629266976301e-14
    vertex 37.63023896615755 3.500000000000002 1.7755632032009318e-14
    vertex 37.530338543652924 3.2588190451025256 1.770849453858469e-14
  endloop
endfacet
facet normal 4.718447854656918e-16 -1.3558546808486156e-31 -1.0
  outer loop
    vertex 4.146264369942002 3.000000000000018 1.041629266976301e-14
    vertex 37.530338543652924 3.2588190451025256 1.770849453858469e-14
    vertex 37.49626436994199 3.000000000000003 1.7692416817400134e-14
  endloop
endfacet
facet normal 4.718447854656918e-16 -1.3558546808486156e-31 -1.0
  outer loop
    vertex 38.49626436994198 4.000000000000001 1.8164261602865826e-14
    vertex 86.29252873988396 5.999999999999982 4.071667971056259e-14
    vertex 38.75508341504451 3.9659258262890695 1.828638401967666e-14
  endloop
endfacet
facet normal 4.718447854656918e-16 -1.3558546808486156e-31 -1.0
  outer loop
    vertex 38.75508341504451 3.9659258262890695 1.828638401967666e-14
    vertex 86.29252873988396 5.999999999999982 4.071667971056259e-14
    vertex 38.99626436994198 3.866025403784442 1.840018399559867e-14
  endloop
endfacet
facet normal 4.718447854656918e-16 -1.3558546808486156e-31 -1.0
  outer loop
    vertex 38.99626436994198 3.866025403784442 1.840018399559867e-14
    vertex 86.29252873988396 5.999999999999982 4.071667971056259e-14
    vertex 39.203371151128536 3.7071067811865466 1.8497906250336127e-14
  endloop
endfacet
facet normal 4.718447854656918e-16 -1.3558546808486156e-31 -1.0
  outer loop
    vertex 39.203371151128536 3.7071067811865466 1.8497906250336127e-14
    vertex 86.29252873988396 5.999999999999982 4.071667971056259e-14
    vertex 39.36228977372642 3.5000000000000013 1.857289117372233e-14
  endloop
endfacet
facet normal 4.718447854656918e-16 -1.3558546808486156e-31 -1.0
  outer loop
    vertex 39.36228977372642 3.5000000000000013 1.857289117372233e-14
    vertex 86.29252873988396 5.999999999999982 4.071667971056259e-14
    vertex 39.462190196231056 3.258819045102525 1.862002866714696e-14
  endloop
endfacet
facet normal 4.718447854656918e-16 -1.3558546808486156e-31 -1.0
  outer loop
    vertex 39.462190196231056 3.258819045102525 1.862002866714696e-14
    vertex 86.29252873988396 5.999999999999982 4.071667971056259e-14
    vertex 39.49626436994198 3.000000000000002 1.8636106388331514e-14
  endloop
endfacet
facet normal 4.718447854656918e-16 -1.3558546808486156e-31 -1.0
  outer loop
    vertex 39.49626436994198 3.000000000000002 1.8636106388331514e-14
    vertex 86.29252873988396 5.999999999999982 4.071667971056259e-14
    vertex 82.646264369942 3.8660254037844224 0.004375000000045897
  endloop
endfacet
facet normal 4.718447854656918e-16 -1.3558546808486156e-31 -1.0
  outer loop
    vertex 39.49626436994198 3.000000000000002 1.8636106388331514e-14
    vertex 82.646264369942 3.8660254037844224 0.004375000000045897
    vertex 82.43915758875545 3.707106781186527 0.0043750000000458
  endloop
endfacet
facet normal 4.718447854656918e-16 -1.3558546808486156e-31 -1.0
  outer loop
    vertex 39.49626436994198 3.000000000000002 1.8636106388331514e-14
    vertex 82.43915758875545 3.707106781186527 0.0043750000000458
    vertex 82.28023896615757 3.4999999999999822 0.004375000000045724
  endloop
endfacet
facet normal 4.718447854656918e-16 -1.3558546808486156e-31 -1.0
  outer loop
    vertex 39.49626436994198 3.000000000000002 1.8636106388331514e-14
    vertex 82.28023896615757 3.4999999999999822 0.004375000000045724
    vertex 82.18033854365294 3.258819045102506 0.004375000000045677
  endloop
endfacet
facet normal 4.718447854656918e-16 -1.3558546808486156e-31 -1.0
  outer loop
    vertex 39.49626436994198 3.000000000000002 1.8636106388331514e-14
    vertex 82.18033854365294 3.258819045102506 0.004375000000045677
    vertex 82.146264369942 2.9999999999999836 0.004375000000045661
  endloop
endfacet
facet normal 4.718447854656918e-16 -1.3558546808486156e-31 -1.0
  outer loop
    vertex 82.646264369942 3.8660254037844224 0.004375000000045897
    vertex 86.29252873988396 5.999999999999982 4.071667971056259e-14
    vertex 82.88744532483949 3.9659258262890495 0.0043750000000460105
  endloop
endfacet
facet normal 4.718447854656918e-16 -1.3558546808486156e-31 -1.0
  outer loop
    vertex 82.88744532483949 3.9659258262890495 0.0043750000000460105
    vertex 86.29252873988396 5.999999999999982 4.071667971056259e-14
    vertex 83.146264369942 3.9999999999999813 0.004375000000046134
  endloop
endfacet
facet normal 4.718447854656918e-16 -1.3558546808486156e-31 -1.0
  outer loop
    vertex 83.146264369942 3.9999999999999813 0.004375000000046134
    vertex 86.29252873988396 5.999999999999982 4.071667971056259e-14
    vertex 83.40508341504452 3.9659258262890495 0.004375000000046255
  endloop
endfacet
facet normal 4.718447854656918e-16 -1.3558546808486156e-31 -1.0
  outer loop
    vertex 83.40508341504452 3.9659258262890495 0.004375000000046255
    vertex 86.29252873988396 5.999999999999982 4.071667971056259e-14
    vertex 83.646264369942 3.8660254037844224 0.004375000000046369
  endloop
endfacet
facet normal 4.718447854656918e-16 -1.3558546808486156e-31 -1.0
  outer loop
    vertex 83.646264369942 3.8660254037844224 0.004375000000046369
    vertex 86.29252873988396 5.999999999999982 4.071667971056259e-14
    vertex 83.85337115112854 3.707106781186526 0.004375000000046467
  endloop
endfacet
facet normal 4.718447854656918e-16 -1.3558546808486156e-31 -1.0
  outer loop
    vertex 83.85337115112854 3.707106781186526 0.004375000000046467
    vertex 86.29252873988396 5.999999999999982 4.071667971056259e-14
    vertex 84.01228977372644 3.499999999999982 0.004375000000046541
  endloop
endfacet
facet normal 4.718447854656918e-16 -1.3558546808486156e-31 -1.0
  outer loop
    vertex 84.01228977372644 3.499999999999982 0.004375000000046541
    vertex 86.29252873988396 5.999999999999982 4.071667971056259e-14
    vertex 84.11219019623105 3.258819045102505 0.004375000000046589
  endloop
endfacet
facet normal 4.718447854656918e-16 -1.3558546808486156e-31 -1.0
  outer loop
    vertex 84.11219019623105 3.258819045102505 0.004375000000046589
    vertex 86.29252873988396 5.999999999999982 4.071667971056259e-14
    vertex 84.146264369942 2.9999999999999827 0.004375000000046605
  endloop
endfacet
facet normal 4.718447854656918e-16 -1.3558546808486156e-31 -1.0
  outer loop
    vertex 1.4255263636187007e-14 1.973976537783528e-14 -4.437342591868193e-31
    vertex 3.146264369942003 2.0000000000000204 9.94444788429732e-15
    vertex 86.29252873988396 -1.8329782136561334e-14 4.071667971056259e-14
  endloop
endfacet
facet normal 4.718447854656918e-16 -1.3558546808486156e-31 -1.0
  outer loop
    vertex 3.146264369942003 2.0000000000000204 9.94444788429732e-15
    vertex 1.4255263636187007e-14 1.973976537783528e-14 -4.437342591868193e-31
    vertex 2.887445324839486 2.0340741737109522 9.822325467486488e-15
  endloop
endfacet
facet normal 4.718447854656918e-16 -1.3558546808486156e-31 -1.0
  outer loop
    vertex 2.887445324839486 2.0340741737109522 9.822325467486488e-15
    vertex 1.4255263636187007e-14 1.973976537783528e-14 -4.437342591868193e-31
    vertex 2.646264369942004 2.1339745962155794 9.708525491564474e-15
  endloop
endfacet
facet normal 4.718447854656918e-16 -1.3558546808486156e-31 -1.0
  outer loop
    vertex 2.646264369942004 2.1339745962155794 9.708525491564474e-15
    vertex 1.4255263636187007e-14 1.973976537783528e-14 -4.437342591868193e-31
    vertex 2.4391575887554597 2.2928932188134747 9.610803236827019e-15
  endloop
endfacet
facet normal 4.718447854656918e-16 -1.3558546808486156e-31 -1.0
  outer loop
    vertex 2.4391575887554597 2.2928932188134747 9.610803236827019e-15
    vertex 1.4255263636187007e-14 1.973976537783528e-14 -4.437342591868193e-31
    vertex 2.2802389661575644 2.50000000000002 9.535818313440812e-15
  endloop
endfacet
facet normal 4.718447854656918e-16 -1.3558546808486156e-31 -1.0
  outer loop
    vertex 2.2802389661575644 2.50000000000002 9.535818313440812e-15
    vertex 1.4255263636187007e-14 1.973976537783528e-14 -4.437342591868193e-31
    vertex 2.1803385436529372 2.7411809548974966 9.488680820016184e-15
  endloop
endfacet
facet normal 4.718447854656918e-16 -1.3558546808486156e-31 -1.0
  outer loop
    vertex 2.1803385436529372 2.7411809548974966 9.488680820016184e-15
    vertex 1.4255263636187007e-14 1.973976537783528e-14 -4.437342591868193e-31
    vertex 2.1462643699420054 3.0000000000000187 9.472603098831629e-15
  endloop
endfacet
facet normal 4.718447854656918e-16 -1.3558546808486156e-31 -1.0
  outer loop
    vertex 86.29252873988396 -1.8329782136561334e-14 4.071667971056259e-14
    vertex 3.146264369942003 2.0000000000000204 9.94444788429732e-15
    vertex 3.4050834150445266 2.0340741737109522 1.0066570301108154e-14
  endloop
endfacet
facet normal 4.718447854656918e-16 -1.3558546808486156e-31 -1.0
  outer loop
    vertex 86.29252873988396 -1.8329782136561334e-14 4.071667971056259e-14
    vertex 3.4050834150445266 2.0340741737109522 1.0066570301108154e-14
    vertex 3.6462643699420028 2.1339745962155794 1.0180370277030166e-14
  endloop
endfacet
facet normal 4.718447854656918e-16 -1.3558546808486156e-31 -1.0
  outer loop
    vertex 86.29252873988396 -1.8329782136561334e-14 4.071667971056259e-14
    vertex 3.6462643699420028 2.1339745962155794 1.0180370277030166e-14
    vertex 3.853371151128553 2.2928932188134747 1.0278092531767622e-14
  endloop
endfacet
facet normal 4.718447854656918e-16 -1.3558546808486156e-31 -1.0
  outer loop
    vertex 86.29252873988396 -1.8329782136561334e-14 4.071667971056259e-14
    vertex 3.853371151128553 2.2928932188134747 1.0278092531767622e-14
    vertex 4.012289773726443 2.5000000000000187 1.0353077455153827e-14
  endloop
endfacet
facet normal 4.718447854656918e-16 -1.3558546808486156e-31 -1.0
  outer loop
    vertex 86.29252873988396 -1.8329782136561334e-14 4.071667971056259e-14
    vertex 4.012289773726443 2.5000000000000187 1.0353077455153827e-14
    vertex 4.1121901962310705 2.7411809548975006 1.0400214948578455e-14
  endloop
endfacet
facet normal 4.718447854656918e-16 -1.3558546808486156e-31 -1.0
  outer loop
    vertex 86.29252873988396 -1.8329782136561334e-14 4.071667971056259e-14
    vertex 4.1121901962310705 2.7411809548975006 1.0400214948578455e-14
    vertex 4.146264369942002 3.000000000000018 1.041629266976301e-14
  endloop
endfacet
facet normal 4.718447854656918e-16 -1.3558546808486156e-31 -1.0
  outer loop
    vertex 86.29252873988396 -1.8329782136561334e-14 4.071667971056259e-14
    vertex 4.146264369942002 3.000000000000018 1.041629266976301e-14
    vertex 38.49626436994198 2.000000000000005 1.8164261602865826e-14
  endloop
endfacet
facet normal 4.718447854656918e-16 -1.3558546808486156e-31 -1.0
  outer loop
    vertex 38.49626436994198 2.000000000000005 1.8164261602865826e-14
    vertex 4.146264369942002 3.000000000000018 1.041629266976301e-14
    vertex 38.23744532483946 2.0340741737109367 1.804213918605499e-14
  endloop
endfacet
facet normal 4.718447854656918e-16 -1.3558546808486156e-31 -1.0
  outer loop
    vertex 38.23744532483946 2.0340741737109367 1.804213918605499e-14
    vertex 4.146264369942002 3.000000000000018 1.041629266976301e-14
    vertex 37.99626436994198 2.133974596215564 1.7928339210132977e-14
  endloop
endfacet
facet normal 4.718447854656918e-16 -1.3558546808486156e-31 -1.0
  outer loop
    vertex 37.99626436994198 2.133974596215564 1.7928339210132977e-14
    vertex 4.146264369942002 3.000000000000018 1.041629266976301e-14
    vertex 37.78915758875544 2.292893218813459 1.783061695539552e-14
  endloop
endfacet
facet normal 4.718447854656918e-16 -1.3558546808486156e-31 -1.0
  outer loop
    vertex 37.78915758875544 2.292893218813459 1.783061695539552e-14
    vertex 4.146264369942002 3.000000000000018 1.041629266976301e-14
    vertex 37.63023896615755 2.500000000000004 1.7755632032009318e-14
  endloop
endfacet
facet normal 4.718447854656918e-16 -1.3558546808486156e-31 -1.0
  outer loop
    vertex 37.63023896615755 2.500000000000004 1.7755632032009318e-14
    vertex 4.146264369942002 3.000000000000018 1.041629266976301e-14
    vertex 37.53033854365292 2.741180954897486 1.7708494538584686e-14
  endloop
endfacet
facet normal 4.718447854656918e-16 -1.3558546808486156e-31 -1.0
  outer loop
    vertex 37.53033854365292 2.741180954897486 1.7708494538584686e-14
    vertex 4.146264369942002 3.000000000000018 1.041629266976301e-14
    vertex 37.49626436994199 3.000000000000003 1.7692416817400134e-14
  endloop
endfacet
facet normal 4.718447854656918e-16 -1.3558546808486156e-31 -1.0
  outer loop
    vertex 86.29252873988396 -1.8329782136561334e-14 4.071667971056259e-14
    vertex 38.49626436994198 2.000000000000005 1.8164261602865826e-14
    vertex 38.75508341504451 2.0340741737109367 1.828638401967666e-14
  endloop
endfacet
facet normal 4.718447854656918e-16 -1.3558546808486156e-31 -1.0
  outer loop
    vertex 86.29252873988396 -1.8329782136561334e-14 4.071667971056259e-14
    vertex 38.75508341504451 2.0340741737109367 1.828638401967666e-14
    vertex 38.99626436994198 2.133974596215563 1.840018399559867e-14
  endloop
endfacet
facet normal 4.718447854656918e-16 -1.3558546808486156e-31 -1.0
  outer loop
    vertex 86.29252873988396 -1.8329782136561334e-14 4.071667971056259e-14
    vertex 38.99626436994198 2.133974596215563 1.840018399559867e-14
    vertex 39.203371151128536 2.2928932188134588 1.8497906250336127e-14
  endloop
endfacet
facet normal 4.718447854656918e-16 -1.3558546808486156e-31 -1.0
  outer loop
    vertex 86.29252873988396 -1.8329782136561334e-14 4.071667971056259e-14
    vertex 39.203371151128536 2.2928932188134588 1.8497906250336127e-14
    vertex 39.36228977372642 2.500000000000003 1.857289117372233e-14
  endloop
endfacet
facet normal 4.718447854656918e-16 -1.3558546808486156e-31 -1.0
  outer loop
    vertex 86.29252873988396 -1.8329782136561334e-14 4.071667971056259e-14
    vertex 39.36228977372642 2.500000000000003 1.857289117372233e-14
    vertex 39.46219019623105 2.7411809548974797 1.8620028667146958e-14
  endloop
endfacet
facet normal 4.718447854656918e-16 -1.3558546808486156e-31 -1.0
  outer loop
    vertex 86.29252873988396 -1.8329782136561334e-14 4.071667971056259e-14
    vertex 39.46219019623105 2.7411809548974797 1.8620028667146958e-14
    vertex 39.49626436994198 3.000000000000002 1.8636106388331514e-14
  endloop
endfacet
facet normal 4.718447854656918e-16 -1.3558546808486156e-31 -1.0
  outer loop
    vertex 86.29252873988396 -1.8329782136561334e-14 4.071667971056259e-14
    vertex 39.49626436994198 3.000000000000002 1.8636106388331514e-14
    vertex 82.646264369942 2.133974596215544 0.004375000000045897
  endloop
endfacet
facet normal 4.718447854656918e-16 -1.3558546808486156e-31 -1.0
  outer loop
    vertex 82.646264369942 2.133974596215544 0.004375000000045897
    vertex 39.49626436994198 3.000000000000002 1.8636106388331514e-14
    vertex 82.43915758875545 2.2928932188134397 0.0043750000000458
  endloop
endfacet
facet normal 4.718447854656918e-16 -1.3558546808486156e-31 -1.0
  outer loop
    vertex 82.43915758875545 2.2928932188134397 0.0043750000000458
    vertex 39.49626436994198 3.000000000000002 1.8636106388331514e-14
    vertex 82.28023896615757 2.499999999999984 0.004375000000045724
  endloop
endfacet
facet normal 4.718447854656918e-16 -1.3558546808486156e-31 -1.0
  outer loop
    vertex 82.28023896615757 2.499999999999984 0.004375000000045724
    vertex 39.49626436994198 3.000000000000002 1.8636106388331514e-14
    vertex 82.18033854365294 2.7411809548974606 0.004375000000045677
  endloop
endfacet
facet normal 4.718447854656918e-16 -1.3558546808486156e-31 -1.0
  outer loop
    vertex 82.18033854365294 2.7411809548974606 0.004375000000045677
    vertex 39.49626436994198 3.000000000000002 1.8636106388331514e-14
    vertex 82.146264369942 2.9999999999999836 0.004375000000045661
  endloop
endfacet
facet normal 4.718447854656918e-16 -1.3558546808486156e-31 -1.0
  outer loop
    vertex 86.29252873988396 -1.8329782136561334e-14 4.071667971056259e-14
    vertex 82.646264369942 2.133974596215544 0.004375000000045897
    vertex 82.88744532483949 2.0340741737109167 0.0043750000000460105
  endloop
endfacet
facet normal 4.718447854656918e-16 -1.3558546808486156e-31 -1.0
  outer loop
    vertex 86.29252873988396 -1.8329782136561334e-14 4.071667971056259e-14
    vertex 82.88744532483949 2.0340741737109167 0.0043750000000460105
    vertex 83.146264369942 1.9999999999999851 0.004375000000046134
  endloop
endfacet
facet normal 4.718447854656918e-16 -1.3558546808486156e-31 -1.0
  outer loop
    vertex 86.29252873988396 -1.8329782136561334e-14 4.071667971056259e-14
    vertex 83.146264369942 1.9999999999999851 0.004375000000046134
    vertex 83.40508341504452 2.0340741737109163 0.004375000000046255
  endloop
endfacet
facet normal 4.718447854656918e-16 -1.3558546808486156e-31 -1.0
  outer loop
    vertex 86.29252873988396 -1.8329782136561334e-14 4.071667971056259e-14
    vertex 83.40508341504452 2.0340741737109163 0.004375000000046255
    vertex 83.646264369942 2.1339745962155434 0.004375000000046369
  endloop
endfacet
facet normal 4.718447854656918e-16 -1.3558546808486156e-31 -1.0
  outer loop
    vertex 86.29252873988396 -1.8329782136561334e-14 4.071667971056259e-14
    vertex 83.646264369942 2.1339745962155434 0.004375000000046369
    vertex 83.85337115112854 2.2928932188134388 0.004375000000046467
  endloop
endfacet
facet normal 4.718447854656918e-16 -1.3558546808486156e-31 -1.0
  outer loop
    vertex 86.29252873988396 -1.8329782136561334e-14 4.071667971056259e-14
    vertex 83.85337115112854 2.2928932188134388 0.004375000000046467
    vertex 84.01228977372644 2.4999999999999836 0.004375000000046541
  endloop
endfacet
facet normal 4.718447854656918e-16 -1.3558546808486156e-31 -1.0
  outer loop
    vertex 86.29252873988396 -1.8329782136561334e-14 4.071667971056259e-14
    vertex 84.01228977372644 2.4999999999999836 0.004375000000046541
    vertex 84.11219019623105 2.7411809548974655 0.004375000000046589
  endloop
endfacet
facet normal 4.718447854656918e-16 -1.3558546808486156e-31 -1.0
  outer loop
    vertex 86.29252873988396 -1.8329782136561334e-14 4.071667971056259e-14
    vertex 84.11219019623105 2.7411809548974655 0.004375000000046589
    vertex 84.146264369942 2.9999999999999827 0.004375000000046605
  endloop
endfacet
facet normal 4.718447854656918e-16 -1.3558546808486156e-31 -1.0
  outer loop
    vertex 86.29252873988396 -1.8329782136561334e-14 4.071667971056259e-14
    vertex 84.146264369942 2.9999999999999827 0.004375000000046605
    vertex 86.29252873988396 5.999999999999982 4.071667971056259e-14
  endloop
endfacet
facet normal -4.718447854656918e-16 1.3558546808486156e-31 1.0
  outer loop
    vertex 1.2839729279789933e-14 1.973976537783528e-14 3.0
    vertex 2.280238966157563 2.50000000000002 3.0000000000000013
    vertex 1.550426453889031e-14 6.00000000000002 3.0
  endloop
endfacet
facet normal -4.718447854656918e-16 1.3558546808486156e-31 1.0
  outer loop
    vertex 2.280238966157563 2.50000000000002 3.0000000000000013
    vertex 1.2839729279789933e-14 1.973976537783528e-14 3.0
    vertex 2.4391575887554584 2.2928932188134747 3.0000000000000013
  endloop
endfacet
facet normal -4.718447854656918e-16 1.3558546808486156e-31 1.0
  outer loop
    vertex 2.4391575887554584 2.2928932188134747 3.0000000000000013
    vertex 1.2839729279789933e-14 1.973976537783528e-14 3.0
    vertex 2.6462643699420028 2.1339745962155794 3.0000000000000013
  endloop
endfacet
facet normal -4.718447854656918e-16 1.3558546808486156e-31 1.0
  outer loop
    vertex 2.6462643699420028 2.1339745962155794 3.0000000000000013
    vertex 1.2839729279789933e-14 1.973976537783528e-14 3.0
    vertex 2.8874453248394847 2.0340741737109522 3.0000000000000013
  endloop
endfacet
facet normal -4.718447854656918e-16 1.3558546808486156e-31 1.0
  outer loop
    vertex 2.8874453248394847 2.0340741737109522 3.0000000000000013
    vertex 1.2839729279789933e-14 1.973976537783528e-14 3.0
    vertex 3.146264369942002 2.0000000000000204 3.0000000000000013
  endloop
endfacet
facet normal -4.718447854656918e-16 1.3558546808486156e-31 1.0
  outer loop
    vertex 3.146264369942002 2.0000000000000204 3.0000000000000013
    vertex 1.2839729279789933e-14 1.973976537783528e-14 3.0
    vertex 86.29252873988396 -1.8329782136561334e-14 3.000000000000041
  endloop
endfacet
facet normal -4.718447854656918e-16 1.3558546808486156e-31 1.0
  outer loop
    vertex 1.550426453889031e-14 6.00000000000002 3.0
    vertex 2.280238966157563 2.50000000000002 3.0000000000000013
    vertex 2.180338543652936 2.7411809548974966 3.0000000000000013
  endloop
endfacet
facet normal -4.718447854656918e-16 1.3558546808486156e-31 1.0
  outer loop
    vertex 1.550426453889031e-14 6.00000000000002 3.0
    vertex 2.180338543652936 2.7411809548974966 3.0000000000000013
    vertex 2.146264369942004 3.0000000000000187 3.0000000000000013
  endloop
endfacet
facet normal -4.718447854656918e-16 1.3558546808486156e-31 1.0
  outer loop
    vertex 3.146264369942002 2.0000000000000204 3.0000000000000013
    vertex 86.29252873988396 -1.8329782136561334e-14 3.000000000000041
    vertex 3.4050834150445253 2.0340741737109522 3.0000000000000018
  endloop
endfacet
facet normal -4.718447854656918e-16 1.3558546808486156e-31 1.0
  outer loop
    vertex 3.4050834150445253 2.0340741737109522 3.0000000000000018
    vertex 86.29252873988396 -1.8329782136561334e-14 3.000000000000041
    vertex 3.6462643699420014 2.1339745962155794 3.0000000000000018
  endloop
endfacet
facet normal -4.718447854656918e-16 1.3558546808486156e-31 1.0
  outer loop
    vertex 3.6462643699420014 2.1339745962155794 3.0000000000000018
    vertex 86.29252873988396 -1.8329782136561334e-14 3.000000000000041
    vertex 3.8533711511285516 2.2928932188134747 3.0000000000000018
  endloop
endfacet
facet normal -4.718447854656918e-16 1.3558546808486156e-31 1.0
  outer loop
    vertex 3.8533711511285516 2.2928932188134747 3.0000000000000018
    vertex 86.29252873988396 -1.8329782136561334e-14 3.000000000000041
    vertex 4.012289773726441 2.5000000000000187 3.0000000000000018
  endloop
endfacet
facet normal -4.718447854656918e-16 1.3558546808486156e-31 1.0
  outer loop
    vertex 4.012289773726441 2.5000000000000187 3.0000000000000018
    vertex 86.29252873988396 -1.8329782136561334e-14 3.000000000000041
    vertex 4.112190196231069 2.7411809548975006 3.000000000000002
  endloop
endfacet
facet normal -4.718447854656918e-16 1.3558546808486156e-31 1.0
  outer loop
    vertex 4.112190196231069 2.7411809548975006 3.000000000000002
    vertex 86.29252873988396 -1.8329782136561334e-14 3.000000000000041
    vertex 4.146264369942 3.000000000000018 3.000000000000002
  endloop
endfacet
facet normal -4.718447854656918e-16 1.3558546808486156e-31 1.0
  outer loop
    vertex 4.146264369942 3.000000000000018 3.000000000000002
    vertex 86.29252873988396 -1.8329782136561334e-14 3.000000000000041
    vertex 38.49626436994198 2.000000000000005 3.000000000000024
  endloop
endfacet
facet normal -4.718447854656918e-16 1.3558546808486156e-31 1.0
  outer loop
    vertex 4.146264369942 3.000000000000018 3.000000000000002
    vertex 38.49626436994198 2.000000000000005 3.000000000000024
    vertex 38.23744532483946 2.0340741737109367 3.000000000000024
  endloop
endfacet
facet normal -4.718447854656918e-16 1.3558546808486156e-31 1.0
  outer loop
    vertex 4.146264369942 3.000000000000018 3.000000000000002
    vertex 38.23744532483946 2.0340741737109367 3.000000000000024
    vertex 37.99626436994198 2.133974596215564 3.000000000000024
  endloop
endfacet
facet normal -4.718447854656918e-16 1.3558546808486156e-31 1.0
  outer loop
    vertex 4.146264369942 3.000000000000018 3.000000000000002
    vertex 37.99626436994198 2.133974596215564 3.000000000000024
    vertex 37.78915758875544 2.292893218813459 3.000000000000024
  endloop
endfacet
facet normal -4.718447854656918e-16 1.3558546808486156e-31 1.0
  outer loop
    vertex 4.146264369942 3.000000000000018 3.000000000000002
    vertex 37.78915758875544 2.292893218813459 3.000000000000024
    vertex 37.63023896615755 2.500000000000004 3.0000000000000235
  endloop
endfacet
facet normal -4.718447854656918e-16 1.3558546808486156e-31 1.0
  outer loop
    vertex 4.146264369942 3.000000000000018 3.000000000000002
    vertex 37.63023896615755 2.500000000000004 3.0000000000000235
    vertex 37.53033854365292 2.741180954897486 3.0000000000000235
  endloop
endfacet
facet normal -4.718447854656918e-16 1.3558546808486156e-31 1.0
  outer loop
    vertex 4.146264369942 3.000000000000018 3.000000000000002
    vertex 37.53033854365292 2.741180954897486 3.0000000000000235
    vertex 37.49626436994199 3.000000000000003 3.0000000000000235
  endloop
endfacet
facet normal -4.718447854656918e-16 1.3558546808486156e-31 1.0
  outer loop
    vertex 38.49626436994198 2.000000000000005 3.000000000000024
    vertex 86.29252873988396 -1.8329782136561334e-14 3.000000000000041
    vertex 38.75508341504451 2.0340741737109367 3.000000000000024
  endloop
endfacet
facet normal -4.718447854656918e-16 1.3558546808486156e-31 1.0
  outer loop
    vertex 38.75508341504451 2.0340741737109367 3.000000000000024
    vertex 86.29252873988396 -1.8329782136561334e-14 3.000000000000041
    vertex 38.99626436994198 2.133974596215563 3.000000000000024
  endloop
endfacet
facet normal -4.718447854656918e-16 1.3558546808486156e-31 1.0
  outer loop
    vertex 38.99626436994198 2.133974596215563 3.000000000000024
    vertex 86.29252873988396 -1.8329782136561334e-14 3.000000000000041
    vertex 39.203371151128536 2.2928932188134588 3.000000000000024
  endloop
endfacet
facet normal -4.718447854656918e-16 1.3558546808486156e-31 1.0
  outer loop
    vertex 39.203371151128536 2.2928932188134588 3.000000000000024
    vertex 86.29252873988396 -1.8329782136561334e-14 3.000000000000041
    vertex 39.36228977372642 2.500000000000003 3.0000000000000244
  endloop
endfacet
facet normal -4.718447854656918e-16 1.3558546808486156e-31 1.0
  outer loop
    vertex 39.36228977372642 2.500000000000003 3.0000000000000244
    vertex 86.29252873988396 -1.8329782136561334e-14 3.000000000000041
    vertex 39.46219019623105 2.7411809548974797 3.0000000000000244
  endloop
endfacet
facet normal -4.718447854656918e-16 1.3558546808486156e-31 1.0
  outer loop
    vertex 39.46219019623105 2.7411809548974797 3.0000000000000244
    vertex 86.29252873988396 -1.8329782136561334e-14 3.000000000000041
    vertex 39.49626436994198 3.000000000000002 3.0000000000000244
  endloop
endfacet
facet normal -4.718447854656918e-16 1.3558546808486156e-31 1.0
  outer loop
    vertex 39.49626436994198 3.000000000000002 3.0000000000000244
    vertex 86.29252873988396 -1.8329782136561334e-14 3.000000000000041
    vertex 82.646264369942 2.133974596215544 3.000000000000039
  endloop
endfacet
facet normal -4.718447854656918e-16 1.3558546808486156e-31 1.0
  outer loop
    vertex 39.49626436994198 3.000000000000002 3.0000000000000244
    vertex 82.646264369942 2.133974596215544 3.000000000000039
    vertex 82.43915758875545 2.2928932188134397 3.000000000000039
  endloop
endfacet
facet normal -4.718447854656918e-16 1.3558546808486156e-31 1.0
  outer loop
    vertex 39.49626436994198 3.000000000000002 3.0000000000000244
    vertex 82.43915758875545 2.2928932188134397 3.000000000000039
    vertex 82.28023896615757 2.499999999999984 3.000000000000039
  endloop
endfacet
facet normal -4.718447854656918e-16 1.3558546808486156e-31 1.0
  outer loop
    vertex 39.49626436994198 3.000000000000002 3.0000000000000244
    vertex 82.28023896615757 2.499999999999984 3.000000000000039
    vertex 82.18033854365294 2.7411809548974606 3.000000000000039
  endloop
endfacet
facet normal -4.718447854656918e-16 1.3558546808486156e-31 1.0
  outer loop
    vertex 39.49626436994198 3.000000000000002 3.0000000000000244
    vertex 82.18033854365294 2.7411809548974606 3.000000000000039
    vertex 82.146264369942 2.9999999999999836 3.000000000000039
  endloop
endfacet
facet normal -4.718447854656918e-16 1.3558546808486156e-31 1.0
  outer loop
    vertex 82.646264369942 2.133974596215544 3.000000000000039
    vertex 86.29252873988396 -1.8329782136561334e-14 3.000000000000041
    vertex 82.88744532483949 2.0340741737109167 3.000000000000039
  endloop
endfacet
facet normal -4.718447854656918e-16 1.3558546808486156e-31 1.0
  outer loop
    vertex 82.88744532483949 2.0340741737109167 3.000000000000039
    vertex 86.29252873988396 -1.8329782136561334e-14 3.000000000000041
    vertex 83.146264369942 1.9999999999999851 3.000000000000039
  endloop
endfacet
facet normal -4.718447854656918e-16 1.3558546808486156e-31 1.0
  outer loop
    vertex 83.146264369942 1.9999999999999851 3.000000000000039
    vertex 86.29252873988396 -1.8329782136561334e-14 3.000000000000041
    vertex 83.40508341504452 2.0340741737109163 3.0000000000000395
  endloop
endfacet
facet normal -4.718447854656918e-16 1.3558546808486156e-31 1.0
  outer loop
    vertex 83.40508341504452 2.0340741737109163 3.0000000000000395
    vertex 86.29252873988396 -1.8329782136561334e-14 3.000000000000041
    vertex 83.646264369942 2.1339745962155434 3.0000000000000395
  endloop
endfacet
facet normal -4.718447854656918e-16 1.3558546808486156e-31 1.0
  outer loop
    vertex 83.646264369942 2.1339745962155434 3.0000000000000395
    vertex 86.29252873988396 -1.8329782136561334e-14 3.000000000000041
    vertex 83.85337115112854 2.2928932188134388 3.0000000000000395
  endloop
endfacet
facet normal -4.718447854656918e-16 1.3558546808486156e-31 1.0
  outer loop
    vertex 83.85337115112854 2.2928932188134388 3.0000000000000395
    vertex 86.29252873988396 -1.8329782136561334e-14 3.000000000000041
    vertex 84.01228977372644 2.4999999999999836 3.0000000000000395
  endloop
endfacet
facet normal -4.718447854656918e-16 1.3558546808486156e-31 1.0
  outer loop
    vertex 84.01228977372644 2.4999999999999836 3.0000000000000395
    vertex 86.29252873988396 -1.8329782136561334e-14 3.000000000000041
    vertex 84.11219019623105 2.7411809548974655 3.00000000000004
  endloop
endfacet
facet normal -4.718447854656918e-16 1.3558546808486156e-31 1.0
  outer loop
    vertex 84.11219019623105 2.7411809548974655 3.00000000000004
    vertex 86.29252873988396 -1.8329782136561334e-14 3.000000000000041
    vertex 84.146264369942 2.9999999999999827 3.00000000000004
  endloop
endfacet
facet normal -4.718447854656918e-16 1.3558546808486156e-31 1.0
  outer loop
    vertex 1.550426453889031e-14 6.00000000000002 3.0
    vertex 3.1462643699420028 4.000000000000017 3.0000000000000013
    vertex 86.29252873988396 5.999999999999982 3.000000000000041
  endloop
endfacet
facet normal -4.718447854656918e-16 1.3558546808486156e-31 1.0
  outer loop
    vertex 3.1462643699420028 4.000000000000017 3.0000000000000013
    vertex 1.550426453889031e-14 6.00000000000002 3.0
    vertex 2.88744532483948 3.965925826289085 3.0000000000000013
  endloop
endfacet
facet normal -4.718447854656918e-16 1.3558546808486156e-31 1.0
  outer loop
    vertex 2.88744532483948 3.965925826289085 3.0000000000000013
    vertex 1.550426453889031e-14 6.00000000000002 3.0
    vertex 2.6462643699420036 3.8660254037844575 3.0000000000000013
  endloop
endfacet
facet normal -4.718447854656918e-16 1.3558546808486156e-31 1.0
  outer loop
    vertex 2.6462643699420036 3.8660254037844575 3.0000000000000013
    vertex 1.550426453889031e-14 6.00000000000002 3.0
    vertex 2.439157588755459 3.707106781186562 3.0000000000000013
  endloop
endfacet
facet normal -4.718447854656918e-16 1.3558546808486156e-31 1.0
  outer loop
    vertex 2.439157588755459 3.707106781186562 3.0000000000000013
    vertex 1.550426453889031e-14 6.00000000000002 3.0
    vertex 2.2802389661575635 3.5000000000000178 3.0000000000000013
  endloop
endfacet
facet normal -4.718447854656918e-16 1.3558546808486156e-31 1.0
  outer loop
    vertex 2.2802389661575635 3.5000000000000178 3.0000000000000013
    vertex 1.550426453889031e-14 6.00000000000002 3.0
    vertex 2.1803385436529363 3.258819045102541 3.0000000000000013
  endloop
endfacet
facet normal -4.718447854656918e-16 1.3558546808486156e-31 1.0
  outer loop
    vertex 2.1803385436529363 3.258819045102541 3.0000000000000013
    vertex 1.550426453889031e-14 6.00000000000002 3.0
    vertex 2.146264369942004 3.0000000000000187 3.0000000000000013
  endloop
endfacet
facet normal -4.718447854656918e-16 1.3558546808486156e-31 1.0
  outer loop
    vertex 86.29252873988396 5.999999999999982 3.000000000000041
    vertex 3.1462643699420028 4.000000000000017 3.0000000000000013
    vertex 3.4050834150445257 3.965925826289085 3.0000000000000018
  endloop
endfacet
facet normal -4.718447854656918e-16 1.3558546808486156e-31 1.0
  outer loop
    vertex 86.29252873988396 5.999999999999982 3.000000000000041
    vertex 3.4050834150445257 3.965925826289085 3.0000000000000018
    vertex 3.646264369942002 3.8660254037844575 3.0000000000000018
  endloop
endfacet
facet normal -4.718447854656918e-16 1.3558546808486156e-31 1.0
  outer loop
    vertex 86.29252873988396 5.999999999999982 3.000000000000041
    vertex 3.646264369942002 3.8660254037844575 3.0000000000000018
    vertex 3.8533711511285467 3.707106781186562 3.0000000000000018
  endloop
endfacet
facet normal -4.718447854656918e-16 1.3558546808486156e-31 1.0
  outer loop
    vertex 86.29252873988396 5.999999999999982 3.000000000000041
    vertex 3.8533711511285467 3.707106781186562 3.0000000000000018
    vertex 4.012289773726441 3.5000000000000178 3.0000000000000018
  endloop
endfacet
facet normal -4.718447854656918e-16 1.3558546808486156e-31 1.0
  outer loop
    vertex 86.29252873988396 5.999999999999982 3.000000000000041
    vertex 4.012289773726441 3.5000000000000178 3.0000000000000018
    vertex 4.112190196231069 3.258819045102541 3.000000000000002
  endloop
endfacet
facet normal -4.718447854656918e-16 1.3558546808486156e-31 1.0
  outer loop
    vertex 86.29252873988396 5.999999999999982 3.000000000000041
    vertex 4.112190196231069 3.258819045102541 3.000000000000002
    vertex 4.146264369942 3.000000000000018 3.000000000000002
  endloop
endfacet
facet normal -4.718447854656918e-16 1.3558546808486156e-31 1.0
  outer loop
    vertex 86.29252873988396 5.999999999999982 3.000000000000041
    vertex 4.146264369942 3.000000000000018 3.000000000000002
    vertex 38.49626436994198 4.000000000000001 3.000000000000024
  endloop
endfacet
facet normal -4.718447854656918e-16 1.3558546808486156e-31 1.0
  outer loop
    vertex 38.49626436994198 4.000000000000001 3.000000000000024
    vertex 4.146264369942 3.000000000000018 3.000000000000002
    vertex 38.23744532483946 3.9659258262890695 3.000000000000024
  endloop
endfacet
facet normal -4.718447854656918e-16 1.3558546808486156e-31 1.0
  outer loop
    vertex 38.23744532483946 3.9659258262890695 3.000000000000024
    vertex 4.146264369942 3.000000000000018 3.000000000000002
    vertex 37.99626436994198 3.866025403784442 3.000000000000024
  endloop
endfacet
facet normal -4.718447854656918e-16 1.3558546808486156e-31 1.0
  outer loop
    vertex 37.99626436994198 3.866025403784442 3.000000000000024
    vertex 4.146264369942 3.000000000000018 3.000000000000002
    vertex 37.78915758875544 3.7071067811865466 3.000000000000024
  endloop
endfacet
facet normal -4.718447854656918e-16 1.3558546808486156e-31 1.0
  outer loop
    vertex 37.78915758875544 3.7071067811865466 3.000000000000024
    vertex 4.146264369942 3.000000000000018 3.000000000000002
    vertex 37.63023896615755 3.500000000000002 3.0000000000000235
  endloop
endfacet
facet normal -4.718447854656918e-16 1.3558546808486156e-31 1.0
  outer loop
    vertex 37.63023896615755 3.500000000000002 3.0000000000000235
    vertex 4.146264369942 3.000000000000018 3.000000000000002
    vertex 37.530338543652924 3.2588190451025256 3.0000000000000235
  endloop
endfacet
facet normal -4.718447854656918e-16 1.3558546808486156e-31 1.0
  outer loop
    vertex 37.530338543652924 3.2588190451025256 3.0000000000000235
    vertex 4.146264369942 3.000000000000018 3.000000000000002
    vertex 37.49626436994199 3.000000000000003 3.0000000000000235
  endloop
endfacet
facet normal -4.718447854656918e-16 1.3558546808486156e-31 1.0
  outer loop
    vertex 86.29252873988396 5.999999999999982 3.000000000000041
    vertex 38.49626436994198 4.000000000000001 3.000000000000024
    vertex 38.75508341504451 3.9659258262890695 3.000000000000024
  endloop
endfacet
facet normal -4.718447854656918e-16 1.3558546808486156e-31 1.0
  outer loop
    vertex 86.29252873988396 5.999999999999982 3.000000000000041
    vertex 38.75508341504451 3.9659258262890695 3.000000000000024
    vertex 38.99626436994198 3.866025403784442 3.000000000000024
  endloop
endfacet
facet normal -4.718447854656918e-16 1.3558546808486156e-31 1.0
  outer loop
    vertex 86.29252873988396 5.999999999999982 3.000000000000041
    vertex 38.99626436994198 3.866025403784442 3.000000000000024
    vertex 39.203371151128536 3.7071067811865466 3.000000000000024
  endloop
endfacet
facet normal -4.718447854656918e-16 1.3558546808486156e-31 1.0
  outer loop
    vertex 86.29252873988396 5.999999999999982 3.000000000000041
    vertex 39.203371151128536 3.7071067811865466 3.000000000000024
    vertex 39.36228977372642 3.5000000000000013 3.0000000000000244
  endloop
endfacet
facet normal -4.718447854656918e-16 1.3558546808486156e-31 1.0
  outer loop
    vertex 86.29252873988396 5.999999999999982 3.000000000000041
    vertex 39.36228977372642 3.5000000000000013 3.0000000000000244
    vertex 39.462190196231056 3.258819045102525 3.0000000000000244
  endloop
endfacet
facet normal -4.718447854656918e-16 1.3558546808486156e-31 1.0
  outer loop
    vertex 86.29252873988396 5.999999999999982 3.000000000000041
    vertex 39.462190196231056 3.258819045102525 3.0000000000000244
    vertex 39.49626436994198 3.000000000000002 3.0000000000000244
  endloop
endfacet
facet normal -4.718447854656918e-16 1.3558546808486156e-31 1.0
  outer loop
    vertex 86.29252873988396 5.999999999999982 3.000000000000041
    vertex 39.49626436994198 3.000000000000002 3.0000000000000244
    vertex 82.646264369942 3.8660254037844224 3.000000000000039
  endloop
endfacet
facet normal -4.718447854656918e-16 1.3558546808486156e-31 1.0
  outer loop
    vertex 82.646264369942 3.8660254037844224 3.000000000000039
    vertex 39.49626436994198 3.000000000000002 3.0000000000000244
    vertex 82.43915758875545 3.707106781186527 3.000000000000039
  endloop
endfacet
facet normal -4.718447854656918e-16 1.3558546808486156e-31 1.0
  outer loop
    vertex 82.43915758875545 3.707106781186527 3.000000000000039
    vertex 39.49626436994198 3.000000000000002 3.0000000000000244
    vertex 82.28023896615757 3.4999999999999822 3.000000000000039
  endloop
endfacet
facet normal -4.718447854656918e-16 1.3558546808486156e-31 1.0
  outer loop
    vertex 82.28023896615757 3.4999999999999822 3.000000000000039
    vertex 39.49626436994198 3.000000000000002 3.0000000000000244
    vertex 82.18033854365294 3.258819045102506 3.000000000000039
  endloop
endfacet
facet normal -4.718447854656918e-16 1.3558546808486156e-31 1.0
  outer loop
    vertex 82.18033854365294 3.258819045102506 3.000000000000039
    vertex 39.49626436994198 3.000000000000002 3.0000000000000244
    vertex 82.146264369942 2.9999999999999836 3.000000000000039
  endloop
endfacet
facet normal -4.718447854656918e-16 1.3558546808486156e-31 1.0
  outer loop
    vertex 86.29252873988396 5.999999999999982 3.000000000000041
    vertex 82.646264369942 3.8660254037844224 3.000000000000039
    vertex 82.88744532483949 3.9659258262890495 3.000000000000039
  endloop
endfacet
facet normal -4.718447854656918e-16 1.3558546808486156e-31 1.0
  outer loop
    vertex 86.29252873988396 5.999999999999982 3.000000000000041
    vertex 82.88744532483949 3.9659258262890495 3.000000000000039
    vertex 83.146264369942 3.9999999999999813 3.000000000000039
  endloop
endfacet
facet normal -4.718447854656918e-16 1.3558546808486156e-31 1.0
  outer loop
    vertex 86.29252873988396 5.999999999999982 3.000000000000041
    vertex 83.146264369942 3.9999999999999813 3.000000000000039
    vertex 83.40508341504452 3.9659258262890495 3.0000000000000395
  endloop
endfacet
facet normal -4.718447854656918e-16 1.3558546808486156e-31 1.0
  outer loop
    vertex 86.29252873988396 5.999999999999982 3.000000000000041
    vertex 83.40508341504452 3.9659258262890495 3.0000000000000395
    vertex 83.646264369942 3.8660254037844224 3.0000000000000395
  endloop
endfacet
facet normal -4.718447854656918e-16 1.3558546808486156e-31 1.0
  outer loop
    vertex 86.29252873988396 5.999999999999982 3.000000000000041
    vertex 83.646264369942 3.8660254037844224 3.0000000000000395
    vertex 83.85337115112854 3.707106781186526 3.0000000000000395
  endloop
endfacet
facet normal -4.718447854656918e-16 1.3558546808486156e-31 1.0
  outer loop
    vertex 86.29252873988396 5.999999999999982 3.000000000000041
    vertex 83.85337115112854 3.707106781186526 3.0000000000000395
    vertex 84.01228977372644 3.499999999999982 3.0000000000000395
  endloop
endfacet
facet normal -4.718447854656918e-16 1.3558546808486156e-31 1.0
  outer loop
    vertex 86.29252873988396 5.999999999999982 3.000000000000041
    vertex 84.01228977372644 3.499999999999982 3.0000000000000395
    vertex 84.11219019623105 3.258819045102505 3.00000000000004
  endloop
endfacet
facet normal -4.718447854656918e-16 1.3558546808486156e-31 1.0
  outer loop
    vertex 86.29252873988396 5.999999999999982 3.000000000000041
    vertex 84.11219019623105 3.258819045102505 3.00000000000004
    vertex 84.146264369942 2.9999999999999827 3.00000000000004
  endloop
endfacet
facet normal -4.718447854656918e-16 1.3558546808486156e-31 1.0
  outer loop
    vertex 86.29252873988396 5.999999999999982 3.000000000000041
    vertex 84.146264369942 2.9999999999999827 3.00000000000004
    vertex 86.29252873988396 -1.8329782136561334e-14 3.000000000000041
  endloop
endfacet
facet normal 4.440892098500627e-16 1.0 7.395570986446988e-32
  outer loop
    vertex 86.29252873988396 5.999999999999982 4.071667971056259e-14
    vertex 1.550426453889031e-14 6.00000000000002 3.0
    vertex 86.29252873988396 5.999999999999982 3.000000000000041
  endloop
endfacet
facet normal 4.440892098500627e-16 1.0 7.395570986446988e-32
  outer loop
    vertex 1.550426453889031e-14 6.00000000000002 3.0
    vertex 86.29252873988396 5.999999999999982 4.071667971056259e-14
    vertex 1.6919798895287383e-14 6.00000000000002 0.0
  endloop
endfacet
facet normal 1.0 -4.440892098500627e-16 4.718447854656918e-16
  outer loop
    vertex 86.29252873988396 -1.8329782136561334e-14 3.000000000000041
    vertex 86.29252873988396 5.999999999999982 4.071667971056259e-14
    vertex 86.29252873988396 5.999999999999982 3.000000000000041
  endloop
endfacet
facet normal 1.0 -4.440892098500627e-16 4.718447854656918e-16
  outer loop
    vertex 86.29252873988396 5.999999999999982 4.071667971056259e-14
    vertex 86.29252873988396 -1.8329782136561334e-14 3.000000000000041
    vertex 86.29252873988396 -1.8329782136561334e-14 4.071667971056259e-14
  endloop
endfacet
facet normal -4.440892098500627e-16 -1.0 -7.395570986446988e-32
  outer loop
    vertex 1.4255263636187007e-14 1.973976537783528e-14 -4.437342591868193e-31
    vertex 86.29252873988396 -1.8329782136561334e-14 3.000000000000041
    vertex 1.2839729279789933e-14 1.973976537783528e-14 3.0
  endloop
endfacet
facet normal -4.440892098500627e-16 -1.0 -7.395570986446988e-32
  outer loop
    vertex 86.29252873988396 -1.8329782136561334e-14 3.000000000000041
    vertex 1.4255263636187007e-14 1.973976537783528e-14 -4.437342591868193e-31
    vertex 86.29252873988396 -1.8329782136561334e-14 4.071667971056259e-14
  endloop
endfacet
facet normal -1.0 4.440892098500627e-16 -4.718447854656918e-16
  outer loop
    vertex 1.4255263636187007e-14 1.973976537783528e-14 -4.437342591868193e-31
    vertex 1.550426453889031e-14 6.00000000000002 3.0
    vertex 1.6919798895287383e-14 6.00000000000002 0.0
  endloop
endfacet
facet normal -1.0 4.440892098500627e-16 -4.718447854656918e-16
  outer loop
    vertex 1.550426453889031e-14 6.00000000000002 3.0
    vertex 1.4255263636187007e-14 1.973976537783528e-14 -4.437342591868193e-31
    vertex 1.2839729279789933e-14 1.973976537783528e-14 3.0
  endloop
endfacet
facet normal 0.1305261922200512 0.9914448613738105 6.158810316572358e-17
  outer loop
    vertex 38.49626436994198 2.000000000000005 1.8164261602865826e-14
    vertex 38.23744532483946 2.0340741737109367 3.000000000000024
    vertex 38.49626436994198 2.000000000000005 3.000000000000024
  endloop
endfacet
facet normal 0.1305261922200512 0.9914448613738105 6.158810316572358e-17
  outer loop
    vertex 38.23744532483946 2.0340741737109367 3.000000000000024
    vertex 38.49626436994198 2.000000000000005 1.8164261602865826e-14
    vertex 38.23744532483946 2.0340741737109367 1.804213918605499e-14
  endloop
endfacet
facet normal 0.38268343236508634 0.9238795325112882 1.8056718204557863e-16
  outer loop
    vertex 38.23744532483946 2.0340741737109367 1.804213918605499e-14
    vertex 37.99626436994198 2.133974596215564 3.000000000000024
    vertex 38.23744532483946 2.0340741737109367 3.000000000000024
  endloop
endfacet
facet normal 0.38268343236508634 0.9238795325112882 1.8056718204557863e-16
  outer loop
    vertex 37.99626436994198 2.133974596215564 3.000000000000024
    vertex 38.23744532483946 2.0340741737109367 1.804213918605499e-14
    vertex 37.99626436994198 2.133974596215564 1.7928339210132977e-14
  endloop
endfacet
facet normal 0.6087614290087265 0.7933533402912305 2.8724090587041043e-16
  outer loop
    vertex 37.99626436994198 2.133974596215564 1.7928339210132977e-14
    vertex 37.78915758875544 2.292893218813459 3.000000000000024
    vertex 37.99626436994198 2.133974596215564 3.000000000000024
  endloop
endfacet
facet normal 0.6087614290087265 0.7933533402912305 2.8724090587041043e-16
  outer loop
    vertex 37.78915758875544 2.292893218813459 3.000000000000024
    vertex 37.99626436994198 2.133974596215564 1.7928339210132977e-14
    vertex 37.78915758875544 2.292893218813459 1.783061695539552e-14
  endloop
endfacet
facet normal 0.7933533402912439 0.6087614290087092 3.7433963664821196e-16
  outer loop
    vertex 37.78915758875544 2.292893218813459 3.000000000000024
    vertex 37.63023896615755 2.500000000000004 1.7755632032009318e-14
    vertex 37.63023896615755 2.500000000000004 3.0000000000000235
  endloop
endfacet
facet normal 0.7933533402912439 0.6087614290087092 3.7433963664821196e-16
  outer loop
    vertex 37.63023896615755 2.500000000000004 1.7755632032009318e-14
    vertex 37.78915758875544 2.292893218813459 3.000000000000024
    vertex 37.78915758875544 2.292893218813459 1.783061695539552e-14
  endloop
endfacet
facet normal 0.9238795325112764 0.3826834323651147 4.359277398139268e-16
  outer loop
    vertex 37.63023896615755 2.500000000000004 3.0000000000000235
    vertex 37.53033854365292 2.741180954897486 1.7708494538584686e-14
    vertex 37.53033854365292 2.741180954897486 3.0000000000000235
  endloop
endfacet
facet normal 0.9238795325112764 0.3826834323651147 4.359277398139268e-16
  outer loop
    vertex 37.53033854365292 2.741180954897486 1.7708494538584686e-14
    vertex 37.63023896615755 2.500000000000004 3.0000000000000235
    vertex 37.63023896615755 2.500000000000004 1.7755632032009318e-14
  endloop
endfacet
facet normal 0.991444861373813 0.13052619222003187 4.678080879159894e-16
  outer loop
    vertex 37.53033854365292 2.741180954897486 3.0000000000000235
    vertex 37.49626436994199 3.000000000000003 1.7692416817400134e-14
    vertex 37.49626436994199 3.000000000000003 3.0000000000000235
  endloop
endfacet
facet normal 0.991444861373813 0.13052619222003187 4.678080879159894e-16
  outer loop
    vertex 37.49626436994199 3.000000000000003 1.7692416817400134e-14
    vertex 37.53033854365292 2.741180954897486 3.0000000000000235
    vertex 37.53033854365292 2.741180954897486 1.7708494538584686e-14
  endloop
endfacet
facet normal 0.9914448613738078 -0.13052619222007245 4.67808087915987e-16
  outer loop
    vertex 37.49626436994199 3.000000000000003 3.0000000000000235
    vertex 37.530338543652924 3.2588190451025256 1.770849453858469e-14
    vertex 37.530338543652924 3.2588190451025256 3.0000000000000235
  endloop
endfacet
facet normal 0.9914448613738078 -0.13052619222007245 4.67808087915987e-16
  outer loop
    vertex 37.530338543652924 3.2588190451025256 1.770849453858469e-14
    vertex 37.49626436994199 3.000000000000003 3.0000000000000235
    vertex 37.49626436994199 3.000000000000003 1.7692416817400134e-14
  endloop
endfacet
facet normal 0.9238795325112882 -0.38268343236508634 4.359277398139325e-16
  outer loop
    vertex 37.530338543652924 3.2588190451025256 3.0000000000000235
    vertex 37.63023896615755 3.500000000000002 1.7755632032009318e-14
    vertex 37.63023896615755 3.500000000000002 3.0000000000000235
  endloop
endfacet
facet normal 0.9238795325112882 -0.38268343236508634 4.359277398139325e-16
  outer loop
    vertex 37.63023896615755 3.500000000000002 1.7755632032009318e-14
    vertex 37.530338543652924 3.2588190451025256 3.0000000000000235
    vertex 37.530338543652924 3.2588190451025256 1.770849453858469e-14
  endloop
endfacet
facet normal 0.7933533402912435 -0.6087614290087099 3.7433963664821186e-16
  outer loop
    vertex 37.63023896615755 3.500000000000002 3.0000000000000235
    vertex 37.78915758875544 3.7071067811865466 1.783061695539552e-14
    vertex 37.78915758875544 3.7071067811865466 3.000000000000024
  endloop
endfacet
facet normal 0.7933533402912435 -0.6087614290087099 3.7433963664821186e-16
  outer loop
    vertex 37.78915758875544 3.7071067811865466 1.783061695539552e-14
    vertex 37.63023896615755 3.500000000000002 3.0000000000000235
    vertex 37.63023896615755 3.500000000000002 1.7755632032009318e-14
  endloop
endfacet
facet normal 0.608761429008726 -0.7933533402912312 2.872409058704104e-16
  outer loop
    vertex 37.78915758875544 3.7071067811865466 1.783061695539552e-14
    vertex 37.99626436994198 3.866025403784442 3.000000000000024
    vertex 37.78915758875544 3.7071067811865466 3.000000000000024
  endloop
endfacet
facet normal 0.608761429008726 -0.7933533402912312 2.872409058704104e-16
  outer loop
    vertex 37.99626436994198 3.866025403784442 3.000000000000024
    vertex 37.78915758875544 3.7071067811865466 1.783061695539552e-14
    vertex 37.99626436994198 3.866025403784442 1.7928339210132977e-14
  endloop
endfacet
facet normal 0.38268343236508556 -0.9238795325112886 1.8056718204557848e-16
  outer loop
    vertex 37.99626436994198 3.866025403784442 1.7928339210132977e-14
    vertex 38.23744532483946 3.9659258262890695 3.000000000000024
    vertex 37.99626436994198 3.866025403784442 3.000000000000024
  endloop
endfacet
facet normal 0.38268343236508556 -0.9238795325112886 1.8056718204557848e-16
  outer loop
    vertex 38.23744532483946 3.9659258262890695 3.000000000000024
    vertex 37.99626436994198 3.866025403784442 1.7928339210132977e-14
    vertex 38.23744532483946 3.9659258262890695 1.804213918605499e-14
  endloop
endfacet
facet normal 0.13052619222005032 -0.9914448613738107 6.158810316572343e-17
  outer loop
    vertex 38.23744532483946 3.9659258262890695 1.804213918605499e-14
    vertex 38.49626436994198 4.000000000000001 3.000000000000024
    vertex 38.23744532483946 3.9659258262890695 3.000000000000024
  endloop
endfacet
facet normal 0.13052619222005032 -0.9914448613738107 6.158810316572343e-17
  outer loop
    vertex 38.49626436994198 4.000000000000001 3.000000000000024
    vertex 38.23744532483946 3.9659258262890695 1.804213918605499e-14
    vertex 38.49626436994198 4.000000000000001 1.8164261602865826e-14
  endloop
endfacet
facet normal -0.1305261922200512 -0.9914448613738105 -6.158810316572358e-17
  outer loop
    vertex 38.49626436994198 4.000000000000001 1.8164261602865826e-14
    vertex 38.75508341504451 3.9659258262890695 3.000000000000024
    vertex 38.49626436994198 4.000000000000001 3.000000000000024
  endloop
endfacet
facet normal -0.1305261922200512 -0.9914448613738105 -6.158810316572358e-17
  outer loop
    vertex 38.75508341504451 3.9659258262890695 3.000000000000024
    vertex 38.49626436994198 4.000000000000001 1.8164261602865826e-14
    vertex 38.75508341504451 3.9659258262890695 1.828638401967666e-14
  endloop
endfacet
facet normal -0.38268343236508634 -0.9238795325112882 -1.8056718204557863e-16
  outer loop
    vertex 38.75508341504451 3.9659258262890695 1.828638401967666e-14
    vertex 38.99626436994198 3.866025403784442 3.000000000000024
    vertex 38.75508341504451 3.9659258262890695 3.000000000000024
  endloop
endfacet
facet normal -0.38268343236508634 -0.9238795325112882 -1.8056718204557863e-16
  outer loop
    vertex 38.99626436994198 3.866025403784442 3.000000000000024
    vertex 38.75508341504451 3.9659258262890695 1.828638401967666e-14
    vertex 38.99626436994198 3.866025403784442 1.840018399559867e-14
  endloop
endfacet
facet normal -0.6087614290087265 -0.7933533402912305 -2.8724090587041043e-16
  outer loop
    vertex 38.99626436994198 3.866025403784442 1.840018399559867e-14
    vertex 39.203371151128536 3.7071067811865466 3.000000000000024
    vertex 38.99626436994198 3.866025403784442 3.000000000000024
  endloop
endfacet
facet normal -0.6087614290087265 -0.7933533402912305 -2.8724090587041043e-16
  outer loop
    vertex 39.203371151128536 3.7071067811865466 3.000000000000024
    vertex 38.99626436994198 3.866025403784442 1.840018399559867e-14
    vertex 39.203371151128536 3.7071067811865466 1.8497906250336127e-14
  endloop
endfacet
facet normal -0.7933533402912439 -0.6087614290087092 -3.7433963664821196e-16
  outer loop
    vertex 39.36228977372642 3.5000000000000013 1.857289117372233e-14
    vertex 39.203371151128536 3.7071067811865466 3.000000000000024
    vertex 39.203371151128536 3.7071067811865466 1.8497906250336127e-14
  endloop
endfacet
facet normal -0.7933533402912439 -0.6087614290087092 -3.7433963664821196e-16
  outer loop
    vertex 39.203371151128536 3.7071067811865466 3.000000000000024
    vertex 39.36228977372642 3.5000000000000013 1.857289117372233e-14
    vertex 39.36228977372642 3.5000000000000013 3.0000000000000244
  endloop
endfacet
facet normal -0.9238795325112733 -0.38268343236512237 -4.3592773981392534e-16
  outer loop
    vertex 39.462190196231056 3.258819045102525 1.862002866714696e-14
    vertex 39.36228977372642 3.5000000000000013 3.0000000000000244
    vertex 39.36228977372642 3.5000000000000013 1.857289117372233e-14
  endloop
endfacet
facet normal -0.9238795325112733 -0.38268343236512237 -4.3592773981392534e-16
  outer loop
    vertex 39.36228977372642 3.5000000000000013 3.0000000000000244
    vertex 39.462190196231056 3.258819045102525 1.862002866714696e-14
    vertex 39.462190196231056 3.258819045102525 3.0000000000000244
  endloop
endfacet
facet normal -0.9914448613738134 -0.13052619222002906 -4.678080879159895e-16
  outer loop
    vertex 39.49626436994198 3.000000000000002 1.8636106388331514e-14
    vertex 39.462190196231056 3.258819045102525 3.0000000000000244
    vertex 39.462190196231056 3.258819045102525 1.862002866714696e-14
  endloop
endfacet
facet normal -0.9914448613738134 -0.13052619222002906 -4.678080879159895e-16
  outer loop
    vertex 39.462190196231056 3.258819045102525 3.0000000000000244
    vertex 39.49626436994198 3.000000000000002 1.8636106388331514e-14
    vertex 39.49626436994198 3.000000000000002 3.0000000000000244
  endloop
endfacet
facet normal -0.9914448613738078 0.13052619222007245 -4.67808087915987e-16
  outer loop
    vertex 39.46219019623105 2.7411809548974797 1.8620028667146958e-14
    vertex 39.49626436994198 3.000000000000002 3.0000000000000244
    vertex 39.49626436994198 3.000000000000002 1.8636106388331514e-14
  endloop
endfacet
facet normal -0.9914448613738078 0.13052619222007245 -4.67808087915987e-16
  outer loop
    vertex 39.49626436994198 3.000000000000002 3.0000000000000244
    vertex 39.46219019623105 2.7411809548974797 1.8620028667146958e-14
    vertex 39.46219019623105 2.7411809548974797 3.0000000000000244
  endloop
endfacet
facet normal -0.9238795325112882 0.38268343236508634 -4.359277398139325e-16
  outer loop
    vertex 39.36228977372642 2.500000000000003 1.857289117372233e-14
    vertex 39.46219019623105 2.7411809548974797 3.0000000000000244
    vertex 39.46219019623105 2.7411809548974797 1.8620028667146958e-14
  endloop
endfacet
facet normal -0.9238795325112882 0.38268343236508634 -4.359277398139325e-16
  outer loop
    vertex 39.46219019623105 2.7411809548974797 3.0000000000000244
    vertex 39.36228977372642 2.500000000000003 1.857289117372233e-14
    vertex 39.36228977372642 2.500000000000003 3.0000000000000244
  endloop
endfacet
facet normal -0.7933533402912435 0.6087614290087099 -3.7433963664821186e-16
  outer loop
    vertex 39.203371151128536 2.2928932188134588 1.8497906250336127e-14
    vertex 39.36228977372642 2.500000000000003 3.0000000000000244
    vertex 39.36228977372642 2.500000000000003 1.857289117372233e-14
  endloop
endfacet
facet normal -0.7933533402912435 0.6087614290087099 -3.7433963664821186e-16
  outer loop
    vertex 39.36228977372642 2.500000000000003 3.0000000000000244
    vertex 39.203371151128536 2.2928932188134588 1.8497906250336127e-14
    vertex 39.203371151128536 2.2928932188134588 3.000000000000024
  endloop
endfacet
facet normal -0.608761429008726 0.7933533402912312 -2.872409058704104e-16
  outer loop
    vertex 39.203371151128536 2.2928932188134588 1.8497906250336127e-14
    vertex 38.99626436994198 2.133974596215563 3.000000000000024
    vertex 39.203371151128536 2.2928932188134588 3.000000000000024
  endloop
endfacet
facet normal -0.608761429008726 0.7933533402912312 -2.872409058704104e-16
  outer loop
    vertex 38.99626436994198 2.133974596215563 3.000000000000024
    vertex 39.203371151128536 2.2928932188134588 1.8497906250336127e-14
    vertex 38.99626436994198 2.133974596215563 1.840018399559867e-14
  endloop
endfacet
facet normal -0.38268343236508556 0.9238795325112886 -1.8056718204557848e-16
  outer loop
    vertex 38.99626436994198 2.133974596215563 1.840018399559867e-14
    vertex 38.75508341504451 2.0340741737109367 3.000000000000024
    vertex 38.99626436994198 2.133974596215563 3.000000000000024
  endloop
endfacet
facet normal -0.38268343236508556 0.9238795325112886 -1.8056718204557848e-16
  outer loop
    vertex 38.75508341504451 2.0340741737109367 3.000000000000024
    vertex 38.99626436994198 2.133974596215563 1.840018399559867e-14
    vertex 38.75508341504451 2.0340741737109367 1.828638401967666e-14
  endloop
endfacet
facet normal -0.13052619222005032 0.9914448613738107 -6.158810316572343e-17
  outer loop
    vertex 38.75508341504451 2.0340741737109367 1.828638401967666e-14
    vertex 38.49626436994198 2.000000000000005 3.000000000000024
    vertex 38.75508341504451 2.0340741737109367 3.000000000000024
  endloop
endfacet
facet normal -0.13052619222005032 0.9914448613738107 -6.158810316572343e-17
  outer loop
    vertex 38.49626436994198 2.000000000000005 3.000000000000024
    vertex 38.75508341504451 2.0340741737109367 1.828638401967666e-14
    vertex 38.49626436994198 2.000000000000005 1.8164261602865826e-14
  endloop
endfacet
facet normal 0.9914448613738078 0.13052619222007153 4.678080879159869e-16
  outer loop
    vertex 82.18033854365294 2.7411809548974606 3.000000000000039
    vertex 82.146264369942 2.9999999999999836 0.004375000000045661
    vertex 82.146264369942 2.9999999999999836 3.000000000000039
  endloop
endfacet
facet normal 0.9914448613738078 0.13052619222007153 4.678080879159869e-16
  outer loop
    vertex 82.146264369942 2.9999999999999836 0.004375000000045661
    vertex 82.18033854365294 2.7411809548974606 3.000000000000039
    vertex 82.18033854365294 2.7411809548974606 0.004375000000045677
  endloop
endfacet
facet normal 0.9238795325112886 0.38268343236508556 4.359277398139326e-16
  outer loop
    vertex 82.28023896615757 2.499999999999984 3.000000000000039
    vertex 82.18033854365294 2.7411809548974606 0.004375000000045677
    vertex 82.18033854365294 2.7411809548974606 3.000000000000039
  endloop
endfacet
facet normal 0.9238795325112886 0.38268343236508556 4.359277398139326e-16
  outer loop
    vertex 82.18033854365294 2.7411809548974606 0.004375000000045677
    vertex 82.28023896615757 2.499999999999984 3.000000000000039
    vertex 82.28023896615757 2.499999999999984 0.004375000000045724
  endloop
endfacet
facet normal 0.7933533402912439 0.6087614290087092 3.7433963664821196e-16
  outer loop
    vertex 82.43915758875545 2.2928932188134397 3.000000000000039
    vertex 82.28023896615757 2.499999999999984 0.004375000000045724
    vertex 82.28023896615757 2.499999999999984 3.000000000000039
  endloop
endfacet
facet normal 0.7933533402912439 0.6087614290087092 3.7433963664821196e-16
  outer loop
    vertex 82.28023896615757 2.499999999999984 0.004375000000045724
    vertex 82.43915758875545 2.2928932188134397 3.000000000000039
    vertex 82.43915758875545 2.2928932188134397 0.0043750000000458
  endloop
endfacet
facet normal 0.6087614290087265 0.7933533402912305 2.8724090587041043e-16
  outer loop
    vertex 82.646264369942 2.133974596215544 0.004375000000045897
    vertex 82.43915758875545 2.2928932188134397 3.000000000000039
    vertex 82.646264369942 2.133974596215544 3.000000000000039
  endloop
endfacet
facet normal 0.6087614290087265 0.7933533402912305 2.8724090587041043e-16
  outer loop
    vertex 82.43915758875545 2.2928932188134397 3.000000000000039
    vertex 82.646264369942 2.133974596215544 0.004375000000045897
    vertex 82.43915758875545 2.2928932188134397 0.0043750000000458
  endloop
endfacet
facet normal 0.382683432365071 0.9238795325112945 1.805671820455714e-16
  outer loop
    vertex 82.88744532483949 2.0340741737109167 0.0043750000000460105
    vertex 82.646264369942 2.133974596215544 3.000000000000039
    vertex 82.88744532483949 2.0340741737109167 3.000000000000039
  endloop
endfacet
facet normal 0.382683432365071 0.9238795325112945 1.805671820455714e-16
  outer loop
    vertex 82.646264369942 2.133974596215544 3.000000000000039
    vertex 82.88744532483949 2.0340741737109167 0.0043750000000460105
    vertex 82.646264369942 2.133974596215544 0.004375000000045897
  endloop
endfacet
facet normal 0.1305261922200568 0.9914448613738098 6.158810316572622e-17
  outer loop
    vertex 83.146264369942 1.9999999999999851 0.004375000000046134
    vertex 82.88744532483949 2.0340741737109167 3.000000000000039
    vertex 83.146264369942 1.9999999999999851 3.000000000000039
  endloop
endfacet
facet normal 0.1305261922200568 0.9914448613738098 6.158810316572622e-17
  outer loop
    vertex 82.88744532483949 2.0340741737109167 3.000000000000039
    vertex 83.146264369942 1.9999999999999851 0.004375000000046134
    vertex 82.88744532483949 2.0340741737109167 0.0043750000000460105
  endloop
endfacet
facet normal -0.13052619222005588 0.9914448613738098 -6.158810316572606e-17
  outer loop
    vertex 83.40508341504452 2.0340741737109163 0.004375000000046255
    vertex 83.146264369942 1.9999999999999851 3.000000000000039
    vertex 83.40508341504452 2.0340741737109163 3.0000000000000395
  endloop
endfacet
facet normal -0.13052619222005588 0.9914448613738098 -6.158810316572606e-17
  outer loop
    vertex 83.146264369942 1.9999999999999851 3.000000000000039
    vertex 83.40508341504452 2.0340741737109163 0.004375000000046255
    vertex 83.146264369942 1.9999999999999851 0.004375000000046134
  endloop
endfacet
facet normal -0.38268343236507024 0.923879532511295 -1.8056718204557126e-16
  outer loop
    vertex 83.646264369942 2.1339745962155434 0.004375000000046369
    vertex 83.40508341504452 2.0340741737109163 3.0000000000000395
    vertex 83.646264369942 2.1339745962155434 3.0000000000000395
  endloop
endfacet
facet normal -0.38268343236507024 0.923879532511295 -1.8056718204557126e-16
  outer loop
    vertex 83.40508341504452 2.0340741737109163 3.0000000000000395
    vertex 83.646264369942 2.1339745962155434 0.004375000000046369
    vertex 83.40508341504452 2.0340741737109163 0.004375000000046255
  endloop
endfacet
facet normal -0.608761429008726 0.7933533402912312 -2.872409058704104e-16
  outer loop
    vertex 83.85337115112854 2.2928932188134388 0.004375000000046467
    vertex 83.646264369942 2.1339745962155434 3.0000000000000395
    vertex 83.85337115112854 2.2928932188134388 3.0000000000000395
  endloop
endfacet
facet normal -0.608761429008726 0.7933533402912312 -2.872409058704104e-16
  outer loop
    vertex 83.646264369942 2.1339745962155434 3.0000000000000395
    vertex 83.85337115112854 2.2928932188134388 0.004375000000046467
    vertex 83.646264369942 2.1339745962155434 0.004375000000046369
  endloop
endfacet
facet normal -0.7933533402912435 0.6087614290087099 -3.7433963664821186e-16
  outer loop
    vertex 83.85337115112854 2.2928932188134388 0.004375000000046467
    vertex 84.01228977372644 2.4999999999999836 3.0000000000000395
    vertex 84.01228977372644 2.4999999999999836 0.004375000000046541
  endloop
endfacet
facet normal -0.7933533402912435 0.6087614290087099 -3.7433963664821186e-16
  outer loop
    vertex 84.01228977372644 2.4999999999999836 3.0000000000000395
    vertex 83.85337115112854 2.2928932188134388 0.004375000000046467
    vertex 83.85337115112854 2.2928932188134388 3.0000000000000395
  endloop
endfacet
facet normal -0.9238795325112914 0.38268343236507874 -4.35927739813934e-16
  outer loop
    vertex 84.01228977372644 2.4999999999999836 0.004375000000046541
    vertex 84.11219019623105 2.7411809548974655 3.00000000000004
    vertex 84.11219019623105 2.7411809548974655 0.004375000000046589
  endloop
endfacet
facet normal -0.9238795325112914 0.38268343236507874 -4.35927739813934e-16
  outer loop
    vertex 84.11219019623105 2.7411809548974655 3.00000000000004
    vertex 84.01228977372644 2.4999999999999836 0.004375000000046541
    vertex 84.01228977372644 2.4999999999999836 3.0000000000000395
  endloop
endfacet
facet normal -0.9914448613738075 0.13052619222007525 -4.678080879159868e-16
  outer loop
    vertex 84.11219019623105 2.7411809548974655 0.004375000000046589
    vertex 84.146264369942 2.9999999999999827 3.00000000000004
    vertex 84.146264369942 2.9999999999999827 0.004375000000046605
  endloop
endfacet
facet normal -0.9914448613738075 0.13052619222007525 -4.678080879159868e-16
  outer loop
    vertex 84.146264369942 2.9999999999999827 3.00000000000004
    vertex 84.11219019623105 2.7411809548974655 0.004375000000046589
    vertex 84.11219019623105 2.7411809548974655 3.00000000000004
  endloop
endfacet
facet normal -0.9914448613738078 -0.13052619222007153 -4.678080879159869e-16
  outer loop
    vertex 84.146264369942 2.9999999999999827 0.004375000000046605
    vertex 84.11219019623105 3.258819045102505 3.00000000000004
    vertex 84.11219019623105 3.258819045102505 0.004375000000046589
  endloop
endfacet
facet normal -0.9914448613738078 -0.13052619222007153 -4.678080879159869e-16
  outer loop
    vertex 84.11219019623105 3.258819045102505 3.00000000000004
    vertex 84.146264369942 2.9999999999999827 0.004375000000046605
    vertex 84.146264369942 2.9999999999999827 3.00000000000004
  endloop
endfacet
facet normal -0.9238795325112886 -0.38268343236508556 -4.359277398139326e-16
  outer loop
    vertex 84.11219019623105 3.258819045102505 0.004375000000046589
    vertex 84.01228977372644 3.499999999999982 3.0000000000000395
    vertex 84.01228977372644 3.499999999999982 0.004375000000046541
  endloop
endfacet
facet normal -0.9238795325112886 -0.38268343236508556 -4.359277398139326e-16
  outer loop
    vertex 84.01228977372644 3.499999999999982 3.0000000000000395
    vertex 84.11219019623105 3.258819045102505 0.004375000000046589
    vertex 84.11219019623105 3.258819045102505 3.00000000000004
  endloop
endfacet
facet normal -0.7933533402912439 -0.6087614290087092 -3.7433963664821196e-16
  outer loop
    vertex 84.01228977372644 3.499999999999982 0.004375000000046541
    vertex 83.85337115112854 3.707106781186526 3.0000000000000395
    vertex 83.85337115112854 3.707106781186526 0.004375000000046467
  endloop
endfacet
facet normal -0.7933533402912439 -0.6087614290087092 -3.7433963664821196e-16
  outer loop
    vertex 83.85337115112854 3.707106781186526 3.0000000000000395
    vertex 84.01228977372644 3.499999999999982 0.004375000000046541
    vertex 84.01228977372644 3.499999999999982 3.0000000000000395
  endloop
endfacet
facet normal -0.6087614290087265 -0.7933533402912305 -2.8724090587041043e-16
  outer loop
    vertex 83.646264369942 3.8660254037844224 0.004375000000046369
    vertex 83.85337115112854 3.707106781186526 3.0000000000000395
    vertex 83.646264369942 3.8660254037844224 3.0000000000000395
  endloop
endfacet
facet normal -0.6087614290087265 -0.7933533402912305 -2.8724090587041043e-16
  outer loop
    vertex 83.85337115112854 3.707106781186526 3.0000000000000395
    vertex 83.646264369942 3.8660254037844224 0.004375000000046369
    vertex 83.85337115112854 3.707106781186526 0.004375000000046467
  endloop
endfacet
facet normal -0.382683432365071 -0.9238795325112945 -1.805671820455714e-16
  outer loop
    vertex 83.40508341504452 3.9659258262890495 0.004375000000046255
    vertex 83.646264369942 3.8660254037844224 3.0000000000000395
    vertex 83.40508341504452 3.9659258262890495 3.0000000000000395
  endloop
endfacet
facet normal -0.382683432365071 -0.9238795325112945 -1.805671820455714e-16
  outer loop
    vertex 83.646264369942 3.8660254037844224 3.0000000000000395
    vertex 83.40508341504452 3.9659258262890495 0.004375000000046255
    vertex 83.646264369942 3.8660254037844224 0.004375000000046369
  endloop
endfacet
facet normal -0.1305261922200568 -0.9914448613738098 -6.158810316572622e-17
  outer loop
    vertex 83.146264369942 3.9999999999999813 0.004375000000046134
    vertex 83.40508341504452 3.9659258262890495 3.0000000000000395
    vertex 83.146264369942 3.9999999999999813 3.000000000000039
  endloop
endfacet
facet normal -0.1305261922200568 -0.9914448613738098 -6.158810316572622e-17
  outer loop
    vertex 83.40508341504452 3.9659258262890495 3.0000000000000395
    vertex 83.146264369942 3.9999999999999813 0.004375000000046134
    vertex 83.40508341504452 3.9659258262890495 0.004375000000046255
  endloop
endfacet
facet normal 0.13052619222005588 -0.9914448613738098 6.158810316572606e-17
  outer loop
    vertex 82.88744532483949 3.9659258262890495 0.0043750000000460105
    vertex 83.146264369942 3.9999999999999813 3.000000000000039
    vertex 82.88744532483949 3.9659258262890495 3.000000000000039
  endloop
endfacet
facet normal 0.13052619222005588 -0.9914448613738098 6.158810316572606e-17
  outer loop
    vertex 83.146264369942 3.9999999999999813 3.000000000000039
    vertex 82.88744532483949 3.9659258262890495 0.0043750000000460105
    vertex 83.146264369942 3.9999999999999813 0.004375000000046134
  endloop
endfacet
facet normal 0.38268343236507024 -0.923879532511295 1.8056718204557126e-16
  outer loop
    vertex 82.646264369942 3.8660254037844224 0.004375000000045897
    vertex 82.88744532483949 3.9659258262890495 3.000000000000039
    vertex 82.646264369942 3.8660254037844224 3.000000000000039
  endloop
endfacet
facet normal 0.38268343236507024 -0.923879532511295 1.8056718204557126e-16
  outer loop
    vertex 82.88744532483949 3.9659258262890495 3.000000000000039
    vertex 82.646264369942 3.8660254037844224 0.004375000000045897
    vertex 82.88744532483949 3.9659258262890495 0.0043750000000460105
  endloop
endfacet
facet normal 0.608761429008726 -0.7933533402912312 2.872409058704104e-16
  outer loop
    vertex 82.43915758875545 3.707106781186527 0.0043750000000458
    vertex 82.646264369942 3.8660254037844224 3.000000000000039
    vertex 82.43915758875545 3.707106781186527 3.000000000000039
  endloop
endfacet
facet normal 0.608761429008726 -0.7933533402912312 2.872409058704104e-16
  outer loop
    vertex 82.646264369942 3.8660254037844224 3.000000000000039
    vertex 82.43915758875545 3.707106781186527 0.0043750000000458
    vertex 82.646264369942 3.8660254037844224 0.004375000000045897
  endloop
endfacet
facet normal 0.7933533402912435 -0.6087614290087099 3.7433963664821186e-16
  outer loop
    vertex 82.28023896615757 3.4999999999999822 3.000000000000039
    vertex 82.43915758875545 3.707106781186527 0.0043750000000458
    vertex 82.43915758875545 3.707106781186527 3.000000000000039
  endloop
endfacet
facet normal 0.7933533402912435 -0.6087614290087099 3.7433963664821186e-16
  outer loop
    vertex 82.43915758875545 3.707106781186527 0.0043750000000458
    vertex 82.28023896615757 3.4999999999999822 3.000000000000039
    vertex 82.28023896615757 3.4999999999999822 0.004375000000045724
  endloop
endfacet
facet normal 0.9238795325112882 -0.38268343236508634 4.359277398139325e-16
  outer loop
    vertex 82.18033854365294 3.258819045102506 3.000000000000039
    vertex 82.28023896615757 3.4999999999999822 0.004375000000045724
    vertex 82.28023896615757 3.4999999999999822 3.000000000000039
  endloop
endfacet
facet normal 0.9238795325112882 -0.38268343236508634 4.359277398139325e-16
  outer loop
    vertex 82.28023896615757 3.4999999999999822 0.004375000000045724
    vertex 82.18033854365294 3.258819045102506 3.000000000000039
    vertex 82.18033854365294 3.258819045102506 0.004375000000045677
  endloop
endfacet
facet normal 0.9914448613738078 -0.13052619222007245 4.67808087915987e-16
  outer loop
    vertex 82.146264369942 2.9999999999999836 3.000000000000039
    vertex 82.18033854365294 3.258819045102506 0.004375000000045677
    vertex 82.18033854365294 3.258819045102506 3.000000000000039
  endloop
endfacet
facet normal 0.9914448613738078 -0.13052619222007245 4.67808087915987e-16
  outer loop
    vertex 82.18033854365294 3.258819045102506 0.004375000000045677
    vertex 82.146264369942 2.9999999999999836 3.000000000000039
    vertex 82.146264369942 2.9999999999999836 0.004375000000045661
  endloop
endfacet
facet normal 0.130526192220054 0.9914448613738102 6.15881031657249e-17
  outer loop
    vertex 3.146264369942003 2.0000000000000204 9.94444788429732e-15
    vertex 2.8874453248394847 2.0340741737109522 3.0000000000000013
    vertex 3.146264369942002 2.0000000000000204 3.0000000000000013
  endloop
endfacet
facet normal 0.130526192220054 0.9914448613738102 6.15881031657249e-17
  outer loop
    vertex 2.8874453248394847 2.0340741737109522 3.0000000000000013
    vertex 3.146264369942003 2.0000000000000204 9.94444788429732e-15
    vertex 2.887445324839486 2.0340741737109522 9.822325467486488e-15
  endloop
endfacet
facet normal -0.13052619222005032 0.9914448613738107 -6.158810316572343e-17
  outer loop
    vertex 3.4050834150445266 2.0340741737109522 1.0066570301108154e-14
    vertex 3.146264369942002 2.0000000000000204 3.0000000000000013
    vertex 3.4050834150445253 2.0340741737109522 3.0000000000000018
  endloop
endfacet
facet normal -0.13052619222005032 0.9914448613738107 -6.158810316572343e-17
  outer loop
    vertex 3.146264369942002 2.0000000000000204 3.0000000000000013
    vertex 3.4050834150445266 2.0340741737109522 1.0066570301108154e-14
    vertex 3.146264369942003 2.0000000000000204 9.94444788429732e-15
  endloop
endfacet
facet normal -0.38268343236508556 0.9238795325112886 -1.8056718204557848e-16
  outer loop
    vertex 3.6462643699420028 2.1339745962155794 1.0180370277030166e-14
    vertex 3.4050834150445253 2.0340741737109522 3.0000000000000018
    vertex 3.6462643699420014 2.1339745962155794 3.0000000000000018
  endloop
endfacet
facet normal -0.38268343236508556 0.9238795325112886 -1.8056718204557848e-16
  outer loop
    vertex 3.4050834150445253 2.0340741737109522 3.0000000000000018
    vertex 3.6462643699420028 2.1339745962155794 1.0180370277030166e-14
    vertex 3.4050834150445266 2.0340741737109522 1.0066570301108154e-14
  endloop
endfacet
facet normal -0.608761429008726 0.7933533402912312 -2.872409058704104e-16
  outer loop
    vertex 3.853371151128553 2.2928932188134747 1.0278092531767622e-14
    vertex 3.6462643699420014 2.1339745962155794 3.0000000000000018
    vertex 3.8533711511285516 2.2928932188134747 3.0000000000000018
  endloop
endfacet
facet normal -0.608761429008726 0.7933533402912312 -2.872409058704104e-16
  outer loop
    vertex 3.6462643699420014 2.1339745962155794 3.0000000000000018
    vertex 3.853371151128553 2.2928932188134747 1.0278092531767622e-14
    vertex 3.6462643699420028 2.1339745962155794 1.0180370277030166e-14
  endloop
endfacet
facet normal -0.7933533402912331 0.6087614290087234 -3.7433963664820693e-16
  outer loop
    vertex 3.853371151128553 2.2928932188134747 1.0278092531767622e-14
    vertex 4.012289773726441 2.5000000000000187 3.0000000000000018
    vertex 4.012289773726443 2.5000000000000187 1.0353077455153827e-14
  endloop
endfacet
facet normal -0.7933533402912331 0.6087614290087234 -3.7433963664820693e-16
  outer loop
    vertex 4.012289773726441 2.5000000000000187 3.0000000000000018
    vertex 3.853371151128553 2.2928932188134747 1.0278092531767622e-14
    vertex 3.8533711511285516 2.2928932188134747 3.0000000000000018
  endloop
endfacet
facet normal -0.9238795325112914 0.38268343236507874 -4.35927739813934e-16
  outer loop
    vertex 4.012289773726443 2.5000000000000187 1.0353077455153827e-14
    vertex 4.112190196231069 2.7411809548975006 3.000000000000002
    vertex 4.1121901962310705 2.7411809548975006 1.0400214948578455e-14
  endloop
endfacet
facet normal -0.9238795325112914 0.38268343236507874 -4.35927739813934e-16
  outer loop
    vertex 4.112190196231069 2.7411809548975006 3.000000000000002
    vertex 4.012289773726443 2.5000000000000187 1.0353077455153827e-14
    vertex 4.012289773726441 2.5000000000000187 3.0000000000000018
  endloop
endfacet
facet normal -0.9914448613738102 0.130526192220054 -4.678080879159881e-16
  outer loop
    vertex 4.1121901962310705 2.7411809548975006 1.0400214948578455e-14
    vertex 4.146264369942 3.000000000000018 3.000000000000002
    vertex 4.146264369942002 3.000000000000018 1.041629266976301e-14
  endloop
endfacet
facet normal -0.9914448613738102 0.130526192220054 -4.678080879159881e-16
  outer loop
    vertex 4.146264369942 3.000000000000018 3.000000000000002
    vertex 4.1121901962310705 2.7411809548975006 1.0400214948578455e-14
    vertex 4.112190196231069 2.7411809548975006 3.000000000000002
  endloop
endfacet
facet normal -0.9914448613738107 -0.13052619222005032 -4.678080879159882e-16
  outer loop
    vertex 4.146264369942002 3.000000000000018 1.041629266976301e-14
    vertex 4.112190196231069 3.258819045102541 3.000000000000002
    vertex 4.1121901962310705 3.258819045102541 1.0400214948578455e-14
  endloop
endfacet
facet normal -0.9914448613738107 -0.13052619222005032 -4.678080879159882e-16
  outer loop
    vertex 4.112190196231069 3.258819045102541 3.000000000000002
    vertex 4.146264369942002 3.000000000000018 1.041629266976301e-14
    vertex 4.146264369942 3.000000000000018 3.000000000000002
  endloop
endfacet
facet normal -0.9238795325112886 -0.38268343236508556 -4.359277398139326e-16
  outer loop
    vertex 4.1121901962310705 3.258819045102541 1.0400214948578455e-14
    vertex 4.012289773726441 3.5000000000000178 3.0000000000000018
    vertex 4.012289773726443 3.5000000000000178 1.0353077455153827e-14
  endloop
endfacet
facet normal -0.9238795325112886 -0.38268343236508556 -4.359277398139326e-16
  outer loop
    vertex 4.012289773726441 3.5000000000000178 3.0000000000000018
    vertex 4.1121901962310705 3.258819045102541 1.0400214948578455e-14
    vertex 4.112190196231069 3.258819045102541 3.000000000000002
  endloop
endfacet
facet normal -0.7933533402912231 -0.6087614290087364 -3.743396366482021e-16
  outer loop
    vertex 4.012289773726443 3.5000000000000178 1.0353077455153827e-14
    vertex 3.8533711511285467 3.707106781186562 3.0000000000000018
    vertex 3.853371151128548 3.707106781186562 1.027809253176762e-14
  endloop
endfacet
facet normal -0.7933533402912231 -0.6087614290087364 -3.743396366482021e-16
  outer loop
    vertex 3.8533711511285467 3.707106781186562 3.0000000000000018
    vertex 4.012289773726443 3.5000000000000178 1.0353077455153827e-14
    vertex 4.012289773726441 3.5000000000000178 3.0000000000000018
  endloop
endfacet
facet normal -0.6087614290087371 -0.7933533402912226 -2.872409058704154e-16
  outer loop
    vertex 3.6462643699420036 3.8660254037844575 1.0180370277030166e-14
    vertex 3.8533711511285467 3.707106781186562 3.0000000000000018
    vertex 3.646264369942002 3.8660254037844575 3.0000000000000018
  endloop
endfacet
facet normal -0.6087614290087371 -0.7933533402912226 -2.872409058704154e-16
  outer loop
    vertex 3.8533711511285467 3.707106781186562 3.0000000000000018
    vertex 3.6462643699420036 3.8660254037844575 1.0180370277030166e-14
    vertex 3.853371151128548 3.707106781186562 1.027809253176762e-14
  endloop
endfacet
facet normal -0.38268343236508634 -0.9238795325112882 -1.8056718204557863e-16
  outer loop
    vertex 3.405083415044527 3.965925826289085 1.0066570301108154e-14
    vertex 3.646264369942002 3.8660254037844575 3.0000000000000018
    vertex 3.4050834150445257 3.965925826289085 3.0000000000000018
  endloop
endfacet
facet normal -0.38268343236508634 -0.9238795325112882 -1.8056718204557863e-16
  outer loop
    vertex 3.646264369942002 3.8660254037844575 3.0000000000000018
    vertex 3.405083415044527 3.965925826289085 1.0066570301108154e-14
    vertex 3.6462643699420036 3.8660254037844575 1.0180370277030166e-14
  endloop
endfacet
facet normal -0.1305261922200512 -0.9914448613738105 -6.158810316572358e-17
  outer loop
    vertex 3.146264369942004 4.000000000000017 9.94444788429732e-15
    vertex 3.4050834150445257 3.965925826289085 3.0000000000000018
    vertex 3.1462643699420028 4.000000000000017 3.0000000000000013
  endloop
endfacet
facet normal -0.1305261922200512 -0.9914448613738105 -6.158810316572358e-17
  outer loop
    vertex 3.4050834150445257 3.965925826289085 3.0000000000000018
    vertex 3.146264369942004 4.000000000000017 9.94444788429732e-15
    vertex 3.405083415044527 3.965925826289085 1.0066570301108154e-14
  endloop
endfacet
facet normal 0.13052619222005032 -0.9914448613738107 6.158810316572343e-17
  outer loop
    vertex 2.887445324839481 3.965925826289085 9.822325467486484e-15
    vertex 3.1462643699420028 4.000000000000017 3.0000000000000013
    vertex 2.88744532483948 3.965925826289085 3.0000000000000013
  endloop
endfacet
facet normal 0.13052619222005032 -0.9914448613738107 6.158810316572343e-17
  outer loop
    vertex 3.1462643699420028 4.000000000000017 3.0000000000000013
    vertex 2.887445324839481 3.965925826289085 9.822325467486484e-15
    vertex 3.146264369942004 4.000000000000017 9.94444788429732e-15
  endloop
endfacet
facet normal 0.38268343236508556 -0.9238795325112886 1.8056718204557848e-16
  outer loop
    vertex 2.646264369942005 3.8660254037844575 9.708525491564474e-15
    vertex 2.88744532483948 3.965925826289085 3.0000000000000013
    vertex 2.6462643699420036 3.8660254037844575 3.0000000000000013
  endloop
endfacet
facet normal 0.38268343236508556 -0.9238795325112886 1.8056718204557848e-16
  outer loop
    vertex 2.88744532483948 3.965925826289085 3.0000000000000013
    vertex 2.646264369942005 3.8660254037844575 9.708525491564474e-15
    vertex 2.887445324839481 3.965925826289085 9.822325467486484e-15
  endloop
endfacet
facet normal 0.6087614290087364 -0.7933533402912231 2.872409058704153e-16
  outer loop
    vertex 2.4391575887554606 3.707106781186562 9.610803236827019e-15
    vertex 2.6462643699420036 3.8660254037844575 3.0000000000000013
    vertex 2.439157588755459 3.707106781186562 3.0000000000000013
  endloop
endfacet
facet normal 0.6087614290087364 -0.7933533402912231 2.872409058704153e-16
  outer loop
    vertex 2.6462643699420036 3.8660254037844575 3.0000000000000013
    vertex 2.4391575887554606 3.707106781186562 9.610803236827019e-15
    vertex 2.646264369942005 3.8660254037844575 9.708525491564474e-15
  endloop
endfacet
facet normal 0.7933533402912226 -0.6087614290087371 3.74339636648202e-16
  outer loop
    vertex 2.2802389661575635 3.5000000000000178 3.0000000000000013
    vertex 2.4391575887554606 3.707106781186562 9.610803236827019e-15
    vertex 2.439157588755459 3.707106781186562 3.0000000000000013
  endloop
endfacet
facet normal 0.7933533402912226 -0.6087614290087371 3.74339636648202e-16
  outer loop
    vertex 2.4391575887554606 3.707106781186562 9.610803236827019e-15
    vertex 2.2802389661575635 3.5000000000000178 3.0000000000000013
    vertex 2.280238966157565 3.5000000000000178 9.535818313440812e-15
  endloop
endfacet
facet normal 0.9238795325112882 -0.38268343236508634 4.359277398139325e-16
  outer loop
    vertex 2.1803385436529363 3.258819045102541 3.0000000000000013
    vertex 2.280238966157565 3.5000000000000178 9.535818313440812e-15
    vertex 2.2802389661575635 3.5000000000000178 3.0000000000000013
  endloop
endfacet
facet normal 0.9238795325112882 -0.38268343236508634 4.359277398139325e-16
  outer loop
    vertex 2.280238966157565 3.5000000000000178 9.535818313440812e-15
    vertex 2.1803385436529363 3.258819045102541 3.0000000000000013
    vertex 2.1803385436529377 3.258819045102541 9.488680820016184e-15
  endloop
endfacet
facet normal 0.9914448613738105 -0.1305261922200512 4.678080879159882e-16
  outer loop
    vertex 2.146264369942004 3.0000000000000187 3.0000000000000013
    vertex 2.1803385436529377 3.258819045102541 9.488680820016184e-15
    vertex 2.1803385436529363 3.258819045102541 3.0000000000000013
  endloop
endfacet
facet normal 0.9914448613738105 -0.1305261922200512 4.678080879159882e-16
  outer loop
    vertex 2.1803385436529377 3.258819045102541 9.488680820016184e-15
    vertex 2.146264369942004 3.0000000000000187 3.0000000000000013
    vertex 2.1462643699420054 3.0000000000000187 9.472603098831629e-15
  endloop
endfacet
facet normal 0.9914448613738107 0.13052619222005032 4.678080879159882e-16
  outer loop
    vertex 2.180338543652936 2.7411809548974966 3.0000000000000013
    vertex 2.1462643699420054 3.0000000000000187 9.472603098831629e-15
    vertex 2.146264369942004 3.0000000000000187 3.0000000000000013
  endloop
endfacet
facet normal 0.9914448613738107 0.13052619222005032 4.678080879159882e-16
  outer loop
    vertex 2.1462643699420054 3.0000000000000187 9.472603098831629e-15
    vertex 2.180338543652936 2.7411809548974966 3.0000000000000013
    vertex 2.1803385436529372 2.7411809548974966 9.488680820016184e-15
  endloop
endfacet
facet normal 0.9238795325112886 0.38268343236508556 4.359277398139326e-16
  outer loop
    vertex 2.280238966157563 2.50000000000002 3.0000000000000013
    vertex 2.1803385436529372 2.7411809548974966 9.488680820016184e-15
    vertex 2.180338543652936 2.7411809548974966 3.0000000000000013
  endloop
endfacet
facet normal 0.9238795325112886 0.38268343236508556 4.359277398139326e-16
  outer loop
    vertex 2.1803385436529372 2.7411809548974966 9.488680820016184e-15
    vertex 2.280238966157563 2.50000000000002 3.0000000000000013
    vertex 2.2802389661575644 2.50000000000002 9.535818313440812e-15
  endloop
endfacet
facet normal 0.7933533402912231 0.6087614290087364 3.743396366482021e-16
  outer loop
    vertex 2.4391575887554584 2.2928932188134747 3.0000000000000013
    vertex 2.2802389661575644 2.50000000000002 9.535818313440812e-15
    vertex 2.280238966157563 2.50000000000002 3.0000000000000013
  endloop
endfacet
facet normal 0.7933533402912231 0.6087614290087364 3.743396366482021e-16
  outer loop
    vertex 2.2802389661575644 2.50000000000002 9.535818313440812e-15
    vertex 2.4391575887554584 2.2928932188134747 3.0000000000000013
    vertex 2.4391575887554597 2.2928932188134747 9.610803236827019e-15
  endloop
endfacet
facet normal 0.6087614290087371 0.7933533402912226 2.872409058704154e-16
  outer loop
    vertex 2.646264369942004 2.1339745962155794 9.708525491564474e-15
    vertex 2.4391575887554584 2.2928932188134747 3.0000000000000013
    vertex 2.6462643699420028 2.1339745962155794 3.0000000000000013
  endloop
endfacet
facet normal 0.6087614290087371 0.7933533402912226 2.872409058704154e-16
  outer loop
    vertex 2.4391575887554584 2.2928932188134747 3.0000000000000013
    vertex 2.646264369942004 2.1339745962155794 9.708525491564474e-15
    vertex 2.4391575887554597 2.2928932188134747 9.610803236827019e-15
  endloop
endfacet
facet normal 0.38268343236507874 0.9238795325112914 1.8056718204557506e-16
  outer loop
    vertex 2.887445324839486 2.0340741737109522 9.822325467486488e-15
    vertex 2.6462643699420028 2.1339745962155794 3.0000000000000013
    vertex 2.8874453248394847 2.0340741737109522 3.0000000000000013
  endloop
endfacet
facet normal 0.38268343236507874 0.9238795325112914 1.8056718204557506e-16
  outer loop
    vertex 2.6462643699420028 2.1339745962155794 3.0000000000000013
    vertex 2.887445324839486 2.0340741737109522 9.822325467486488e-15
    vertex 2.646264369942004 2.1339745962155794 9.708525491564474e-15
  endloop
endfacet
endsolid EggTurner
